<svg width="16" height="16" viewBox="0 0 16 16" fill="none" xmlns="http://www.w3.org/2000/svg">
<path fill-rule="evenodd" clip-rule="evenodd" d="M11.6134 2C11.8299 1.99998 12.0431 2.05265 12.2346 2.15347C12.4261 2.25429 12.5903 2.40023 12.7128 2.57867L12.7708 2.672L14.9934 6.56C15.1291 6.79731 15.1886 7.0706 15.1638 7.34284C15.139 7.61508 15.0311 7.87312 14.8548 8.082L14.7788 8.164L8.5901 14.3527C8.44494 14.4978 8.25132 14.5842 8.04637 14.5954C7.84141 14.6066 7.63953 14.5418 7.47943 14.4133L7.41143 14.3533L1.22276 8.164C1.02945 7.97077 0.900189 7.7228 0.852491 7.45366C0.804793 7.18452 0.840962 6.90723 0.956098 6.65933L1.0081 6.55933L3.2301 2.67133C3.33749 2.48338 3.48903 2.32441 3.67162 2.20814C3.85421 2.09187 4.06236 2.02181 4.2781 2.004L4.38677 2H11.6134ZM4.8621 6.19533C4.73712 6.32035 4.66691 6.48989 4.66691 6.66667C4.66691 6.84344 4.73712 7.01298 4.8621 7.138L7.41076 9.68667C7.48815 9.76407 7.58003 9.82548 7.68114 9.86737C7.78226 9.90926 7.89064 9.93082 8.0001 9.93082C8.10955 9.93082 8.21793 9.90926 8.31905 9.86737C8.42017 9.82548 8.51205 9.76407 8.58943 9.68667L11.1381 7.138C11.2018 7.0765 11.2526 7.00294 11.2875 6.9216C11.3224 6.84027 11.3408 6.75279 11.3416 6.66427C11.3424 6.57575 11.3255 6.48796 11.292 6.40603C11.2585 6.3241 11.209 6.24967 11.1464 6.18707C11.0838 6.12448 11.0093 6.07497 10.9274 6.04145C10.8455 6.00793 10.7577 5.99106 10.6692 5.99183C10.5806 5.9926 10.4932 6.01099 10.4118 6.04593C10.3305 6.08087 10.2569 6.13166 10.1954 6.19533L8.0001 8.39067L5.80476 6.19533C5.67975 6.07035 5.51021 6.00014 5.33343 6.00014C5.15666 6.00014 4.98712 6.07035 4.8621 6.19533Z" fill="#DCDCDC"/>
</svg>
