<svg width="32" height="32" viewBox="0 0 32 32" fill="none" xmlns="http://www.w3.org/2000/svg">
<path d="M25.422 19.358C21.5927 18.2047 19.3667 17.5173 18.744 17.296C19.342 16.2589 19.7866 15.1406 20.064 13.976H16.8V12.872H20.8V12.192H16.8V10.344H15.264C14.984 10.344 14.952 10.592 14.952 10.592V12.184H11.2V12.864H14.952V13.968H11.88V14.584H18.104C17.8866 15.339 17.5889 16.0685 17.216 16.76C15.808 16.296 15.024 15.976 13.304 15.816C10.048 15.504 9.296 17.296 9.176 18.392C9 20.064 10.48 21.424 12.688 21.424C14.896 21.424 16.368 20.4 17.768 18.704C18.9347 19.262 21.106 20.2293 24.282 21.606C23.3664 22.9601 22.1324 24.0688 20.6885 24.8349C19.2445 25.601 17.6346 26.0011 16 26C10.477 26 6 21.523 6 16C6 10.477 10.477 6 16 6C21.523 6 26 10.477 26 16C26.0009 17.1442 25.8054 18.28 25.422 19.358ZM12.432 20.368C10.096 20.368 9.728 18.888 9.848 18.272C9.968 17.656 10.648 16.856 11.952 16.856C13.448 16.856 14.784 17.24 16.392 18.016C15.256 19.496 13.872 20.368 12.432 20.368Z" fill="#3C79FD"/>
</svg>
