<svg width="150" height="55" viewBox="0 0 150 55" fill="none" xmlns="http://www.w3.org/2000/svg">
<g clip-path="url(#clip0_276_10648)">
<path d="M50.3968 39.0433H32.3332C32.2827 39.0443 32.2326 39.0352 32.1857 39.0166C32.1388 38.998 32.0961 38.9702 32.06 38.9348C32.024 38.8995 31.9954 38.8573 31.9759 38.8108C31.9563 38.7642 31.9463 38.7143 31.9463 38.6638V38.0088C31.9463 37.9062 31.987 37.8078 32.0596 37.7352C32.1322 37.6626 32.2306 37.6218 32.3332 37.6218H50.3968C50.4994 37.6218 50.5978 37.6626 50.6704 37.7352C50.7429 37.8078 50.7837 37.9062 50.7837 38.0088V38.6638C50.7837 38.7143 50.7737 38.7642 50.7541 38.8108C50.7346 38.8573 50.706 38.8995 50.67 38.9348C50.6339 38.9702 50.5912 38.998 50.5443 39.0166C50.4974 39.0352 50.4473 39.0443 50.3968 39.0433Z" fill="#3E3A39"/>
<path d="M59.2352 40.0034H54.2357V38.5968H59.2352C59.2857 38.5958 59.3358 38.6048 59.3827 38.6235C59.4296 38.6421 59.4723 38.6699 59.5083 38.7053C59.5444 38.7406 59.573 38.7828 59.5925 38.8293C59.612 38.8759 59.6221 38.9258 59.6221 38.9763V39.6313C59.6221 39.7339 59.5813 39.8323 59.5088 39.9049C59.4362 39.9775 59.3378 40.0183 59.2352 40.0183" fill="#3E3A39"/>
<path d="M73.2294 39.6015H65.5441C65.4435 39.6015 65.347 39.5615 65.2758 39.4903C65.2046 39.4191 65.1647 39.3226 65.1647 39.2219V38.5967C65.1647 38.4954 65.2044 38.398 65.2753 38.3257C65.3463 38.2533 65.4428 38.2117 65.5441 38.2097H73.2294C73.3307 38.2117 73.4272 38.2533 73.4981 38.3257C73.5691 38.398 73.6088 38.4954 73.6088 38.5967V39.2517C73.6088 39.3523 73.5688 39.4489 73.4976 39.5201C73.4265 39.5912 73.33 39.6312 73.2294 39.6312" fill="#3E3A39"/>
<path d="M85.6909 38.6935H77.6262V37.272H85.6909C85.7935 37.272 85.8919 37.3127 85.9645 37.3853C86.037 37.4579 86.0778 37.5563 86.0778 37.659V38.3139C86.0778 38.3644 86.0677 38.4144 86.0482 38.4609C86.0287 38.5075 86 38.5496 85.964 38.585C85.928 38.6203 85.8853 38.6481 85.8384 38.6668C85.7915 38.6854 85.7413 38.6945 85.6909 38.6935Z" fill="#3E3A39"/>
<path d="M117.005 40.182L109.364 41.5738V40.1225L116.871 38.7828C116.926 38.7731 116.983 38.7756 117.038 38.7901C117.092 38.8047 117.143 38.8309 117.186 38.8671C117.229 38.9032 117.264 38.9484 117.288 38.9994C117.312 39.0504 117.324 39.106 117.325 39.1624V39.8024C117.324 39.8932 117.292 39.9809 117.234 40.0503C117.175 40.1197 117.094 40.1663 117.005 40.182Z" fill="#3E3A39"/>
<path d="M117.005 49.4702L109.364 50.8322V49.4107L116.871 48.071C116.926 48.0613 116.983 48.0638 117.038 48.0783C117.092 48.0929 117.143 48.1191 117.186 48.1553C117.229 48.1914 117.264 48.2366 117.288 48.2876C117.312 48.3386 117.324 48.3942 117.325 48.4506V49.0906C117.324 49.1814 117.292 49.2691 117.234 49.3385C117.175 49.4079 117.094 49.4545 117.005 49.4702Z" fill="#3E3A39"/>
<path d="M106.262 46.7314H99.6255V48.153H106.262V46.7314Z" fill="#3E3A39"/>
<path d="M106.262 50.5122H99.6255V51.9337H106.262V50.5122Z" fill="#3E3A39"/>
<path d="M106.262 54.8438H104.156C104.054 54.8438 103.955 54.803 103.883 54.7304C103.81 54.6578 103.77 54.5594 103.77 54.4567V53.8018C103.771 53.7005 103.813 53.6039 103.885 53.5329C103.958 53.462 104.055 53.4222 104.156 53.4222H106.262V54.8438Z" fill="#3E3A39"/>
<path d="M94.1052 44.5508H87.469V45.9723H94.1052V44.5508Z" fill="#3E3A39"/>
<path d="M85.8694 42.0352H76.7334C76.6308 42.0352 76.5324 41.9945 76.4599 41.9219C76.3873 41.8493 76.3466 41.7509 76.3466 41.6482V40.9933C76.3465 40.9428 76.3566 40.8928 76.3761 40.8463C76.3957 40.7997 76.4243 40.7576 76.4603 40.7222C76.4963 40.6869 76.539 40.6591 76.5859 40.6404C76.6328 40.6218 76.683 40.6127 76.7334 40.6137H85.8694C85.9199 40.6127 85.97 40.6218 86.0169 40.6404C86.0638 40.6591 86.1065 40.6869 86.1425 40.7222C86.1786 40.7576 86.2072 40.7997 86.2267 40.8463C86.2462 40.8928 86.2563 40.9428 86.2563 40.9933V41.6482C86.2563 41.7509 86.2155 41.8493 86.143 41.9219C86.0704 41.9945 85.972 42.0352 85.8694 42.0352Z" fill="#3E3A39"/>
<path d="M93.5845 49.9689H77.976V51.3904H93.5845V49.9689Z" fill="#3E3A39"/>
<path d="M93.5845 53.4222H77.976V54.8438H93.5845V53.4222Z" fill="#3E3A39"/>
<path d="M73.2293 49.887H65.5441C65.4434 49.887 65.3469 49.847 65.2758 49.7758C65.2046 49.7046 65.1646 49.6081 65.1646 49.5074V48.8525C65.1636 48.802 65.1727 48.7518 65.1913 48.7049C65.21 48.658 65.2378 48.6153 65.2731 48.5792C65.3084 48.5432 65.3506 48.5146 65.3971 48.495C65.4436 48.4755 65.4936 48.4654 65.5441 48.4655H73.2293C73.2798 48.4654 73.3297 48.4755 73.3762 48.495C73.4228 48.5146 73.4649 48.5432 73.5003 48.5792C73.5356 48.6153 73.5634 48.658 73.582 48.7049C73.6006 48.7518 73.6097 48.802 73.6087 48.8525V49.5074C73.6087 49.6081 73.5688 49.7046 73.4976 49.7758C73.4264 49.847 73.3299 49.887 73.2293 49.887Z" fill="#3E3A39"/>
<path d="M58.8706 43.9926H53.9306C53.8808 43.9926 53.8315 43.9827 53.7854 43.9637C53.7394 43.9446 53.6976 43.9166 53.6624 43.8814C53.6271 43.8461 53.5992 43.8043 53.5801 43.7582C53.561 43.7122 53.5512 43.6628 53.5512 43.613V42.9581C53.5502 42.9076 53.5593 42.8574 53.5779 42.8105C53.5966 42.7636 53.6244 42.7209 53.6597 42.6848C53.695 42.6488 53.7372 42.6202 53.7837 42.6006C53.8302 42.5811 53.8802 42.571 53.9306 42.571H58.8706C58.9732 42.571 59.0716 42.6118 59.1442 42.6844C59.2167 42.757 59.2575 42.8554 59.2575 42.9581V43.613C59.2575 43.6635 59.2475 43.7134 59.2279 43.76C59.2084 43.8065 59.1798 43.8487 59.1438 43.8841C59.1077 43.9194 59.065 43.9472 59.0181 43.9658C58.9712 43.9845 58.9211 43.9936 58.8706 43.9926Z" fill="#3E3A39"/>
<path d="M73.4154 53.4222H66.2435C66.0587 53.4188 65.8767 53.3758 65.7099 53.2963C65.5431 53.2167 65.3952 53.1023 65.2763 52.9607L63.9148 51.3457L62.8286 52.2611L64.4579 54.1739C64.6327 54.383 64.8512 54.5514 65.098 54.6671C65.3447 54.7828 65.6138 54.8431 65.8863 54.8437H73.4377C73.5403 54.8437 73.6387 54.8029 73.7112 54.7303C73.7838 54.6577 73.8245 54.5593 73.8245 54.4567V53.8017C73.8246 53.7512 73.8145 53.7013 73.795 53.6547C73.7754 53.6082 73.7468 53.566 73.7108 53.5307C73.6748 53.4953 73.6321 53.4675 73.5852 53.4489C73.5383 53.4303 73.4881 53.4212 73.4377 53.4222" fill="#3E3A39"/>
<path d="M59.2352 48.1231H53.7744C53.7246 48.1231 53.6753 48.1133 53.6292 48.0942C53.5832 48.0752 53.5414 48.0472 53.5062 48.012C53.4709 47.9767 53.443 47.9349 53.4239 47.8888C53.4048 47.8428 53.395 47.7934 53.395 47.7436V47.0886C53.395 46.988 53.435 46.8914 53.5062 46.8202C53.5773 46.749 53.6738 46.7091 53.7744 46.7091H59.2352C59.2857 46.7081 59.3358 46.7172 59.3827 46.7358C59.4296 46.7544 59.4723 46.7822 59.5083 46.8176C59.5444 46.8529 59.573 46.8951 59.5925 46.9416C59.612 46.9882 59.6221 47.0381 59.6221 47.0886V47.7436C59.6221 47.794 59.612 47.844 59.5925 47.8906C59.573 47.9371 59.5444 47.9793 59.5083 48.0146C59.4723 48.05 59.4296 48.0778 59.3827 48.0964C59.3358 48.115 59.2857 48.1241 59.2352 48.1231Z" fill="#3E3A39"/>
<path d="M49.9133 42.1394H32.8019C32.752 42.1394 32.7027 42.1296 32.6567 42.1105C32.6106 42.0914 32.5688 42.0635 32.5336 42.0282C32.4983 41.993 32.4704 41.9511 32.4513 41.9051C32.4323 41.859 32.4224 41.8097 32.4224 41.7598V41.1049C32.4214 41.0544 32.4305 41.0043 32.4492 40.9574C32.4678 40.9105 32.4956 40.8677 32.5309 40.8317C32.5662 40.7956 32.6084 40.767 32.6549 40.7475C32.7014 40.7279 32.7514 40.7179 32.8019 40.7179H49.9133C49.9637 40.7179 50.0137 40.7279 50.0602 40.7475C50.1067 40.767 50.1489 40.7956 50.1842 40.8317C50.2195 40.8677 50.2473 40.9105 50.266 40.9574C50.2846 41.0043 50.2937 41.0544 50.2927 41.1049V41.7598C50.2927 41.8097 50.2829 41.859 50.2638 41.9051C50.2447 41.9511 50.2168 41.993 50.1816 42.0282C50.1463 42.0635 50.1045 42.0914 50.0585 42.1105C50.0124 42.1296 49.9631 42.1394 49.9133 42.1394Z" fill="#3E3A39"/>
<path d="M50.7762 45.2355H31.9239C31.8233 45.2355 31.7268 45.1955 31.6556 45.1243C31.5845 45.0531 31.5445 44.9566 31.5445 44.8559V44.201C31.5435 44.1505 31.5526 44.1003 31.5712 44.0534C31.5898 44.0065 31.6176 43.9638 31.653 43.9278C31.6883 43.8917 31.7305 43.8631 31.777 43.8436C31.8235 43.824 31.8735 43.814 31.9239 43.814H50.7762C50.8267 43.814 50.8766 43.824 50.9232 43.8436C50.9697 43.8631 51.0119 43.8917 51.0472 43.9278C51.0825 43.9638 51.1103 44.0065 51.1289 44.0534C51.1476 44.1003 51.1566 44.1505 51.1557 44.201V44.8559C51.1557 44.9566 51.1157 45.0531 51.0445 45.1243C50.9734 45.1955 50.8769 45.2355 50.7762 45.2355Z" fill="#3E3A39"/>
<path d="M43.0984 44.4093H39.8398V37.0636C39.8398 37.0131 39.8499 36.9631 39.8694 36.9166C39.889 36.8701 39.9176 36.8279 39.9536 36.7925C39.9896 36.7572 40.0323 36.7294 40.0792 36.7108C40.1261 36.6921 40.1763 36.683 40.2267 36.684H42.7116C42.762 36.683 42.8122 36.6921 42.8591 36.7108C42.906 36.7294 42.9487 36.7572 42.9847 36.7925C43.0207 36.8279 43.0493 36.8701 43.0689 36.9166C43.0884 36.9631 43.0985 37.0131 43.0984 37.0636V44.4093Z" fill="#3E3A39"/>
<path d="M57.8365 53.4222V43.5088H54.5779V52.9235C54.5779 53.4328 54.7801 53.9212 55.1401 54.2813C55.5 54.6414 55.9883 54.8437 56.4973 54.8437H58.5209C58.6235 54.8437 58.7219 54.8029 58.7945 54.7304C58.867 54.6578 58.9078 54.5593 58.9078 54.4567V53.8018C58.9078 53.7513 58.8978 53.7013 58.8782 53.6548C58.8587 53.6082 58.8301 53.566 58.7941 53.5307C58.758 53.4953 58.7153 53.4675 58.6684 53.4489C58.6215 53.4303 58.5714 53.4212 58.5209 53.4222H57.8365Z" fill="#3E3A39"/>
<path d="M59.9122 42.9581V43.613C59.9142 43.7143 59.9558 43.8109 60.0281 43.8819C60.1005 43.9528 60.1978 43.9926 60.2991 43.9926H60.6785V54.4567C60.6785 54.5593 60.7193 54.6578 60.7918 54.7304C60.8644 54.8029 60.9628 54.8437 61.0654 54.8437H62.0251C62.5322 54.8437 63.0185 54.6422 63.3771 54.2835C63.7357 53.9248 63.9371 53.4383 63.9371 52.931V44.4912C63.9381 44.2394 63.8894 43.9899 63.7937 43.757C63.6981 43.524 63.5574 43.3123 63.3797 43.1339C63.2021 42.9555 62.991 42.8139 62.7585 42.7174C62.5261 42.6208 62.2768 42.571 62.0251 42.571H60.2991C60.1965 42.571 60.0981 42.6118 60.0255 42.6844C59.953 42.757 59.9122 42.8554 59.9122 42.9581Z" fill="#3E3A39"/>
<path d="M70.6404 52.5589H68.1555C68.0442 52.5494 67.9412 52.4964 67.8688 52.4114C67.7964 52.3264 67.7604 52.2163 67.7686 52.1049V43.3376H70.5734C70.6938 43.3376 70.8092 43.3855 70.8943 43.4706C70.9794 43.5558 71.0272 43.6712 71.0272 43.7916V52.1049C71.0355 52.2163 70.9995 52.3264 70.927 52.4114C70.8546 52.4964 70.7516 52.5494 70.6404 52.5589Z" fill="#3E3A39"/>
<path d="M83.1019 37.9865H79.8507V41.5514H83.1019V37.9865Z" fill="#3E3A39"/>
<path d="M90.311 45.9722H87.4392C87.3366 45.9722 87.2382 45.9315 87.1657 45.8589C87.0931 45.7863 87.0524 45.6879 87.0524 45.5852V37.659C87.0524 37.5563 87.0931 37.4579 87.1657 37.3853C87.2382 37.3127 87.3366 37.272 87.4392 37.272H90.311V45.9722Z" fill="#3E3A39"/>
<path d="M101.634 40.0406L103.018 37.3538C103.047 37.2952 103.061 37.2302 103.058 37.1649C103.055 37.0995 103.035 37.036 103.001 36.9803C102.967 36.9246 102.919 36.8784 102.862 36.8461C102.805 36.8138 102.741 36.7965 102.676 36.7957H100.28C100.21 36.7966 100.141 36.8165 100.081 36.8531C100.02 36.8898 99.9712 36.9419 99.9379 37.004L98.2268 40.3457C98.1599 40.4613 98.1254 40.5927 98.1267 40.7262C98.1281 40.8598 98.1654 40.9904 98.2346 41.1046C98.3038 41.2188 98.4025 41.3122 98.5202 41.3751C98.638 41.438 98.7705 41.468 98.9038 41.4621H106.262V40.0406H101.634Z" fill="#3E3A39"/>
<path d="M105.585 42.0129H108.032C108.093 42.0123 108.153 41.9975 108.207 41.9696C108.261 41.9417 108.307 41.9014 108.343 41.8522C108.378 41.8029 108.402 41.746 108.411 41.686C108.421 41.626 108.416 41.5646 108.397 41.5068L107.296 38.247C107.27 38.1711 107.22 38.1053 107.155 38.0586C107.09 38.0119 107.012 37.9867 106.931 37.9865H104.491C104.43 37.9854 104.369 37.9992 104.314 38.0266C104.26 38.0541 104.212 38.0944 104.176 38.1441C104.141 38.1939 104.117 38.2515 104.109 38.3122C104.1 38.3729 104.106 38.4348 104.127 38.4926L105.22 41.7524C105.246 41.8283 105.296 41.8941 105.361 41.9408C105.426 41.9875 105.504 42.0127 105.585 42.0129Z" fill="#3E3A39"/>
<path d="M79.6052 54.8437H76.7334C76.6308 54.8437 76.5324 54.8029 76.4599 54.7304C76.3873 54.6578 76.3466 54.5594 76.3466 54.4567V46.8951C76.3465 46.8447 76.3566 46.7947 76.3761 46.7481C76.3957 46.7016 76.4243 46.6594 76.4603 46.6241C76.4963 46.5887 76.539 46.5609 76.5859 46.5423C76.6328 46.5237 76.683 46.5146 76.7334 46.5156H79.6052V54.8437Z" fill="#3E3A39"/>
<path d="M77.976 46.5155V47.9296H92.1784V54.8437H93.897C94.3035 54.8437 94.6933 54.6821 94.9807 54.3946C95.2681 54.1071 95.4296 53.7171 95.4296 53.3105V48.4282C95.4296 47.9261 95.2323 47.444 94.8801 47.0861C94.528 46.7283 94.0492 46.5233 93.5473 46.5155H77.976Z" fill="#3E3A39"/>
<path d="M100.987 54.8437H98.5021C98.4513 54.8437 98.401 54.8337 98.354 54.8143C98.3071 54.7948 98.2645 54.7663 98.2285 54.7304C98.1926 54.6944 98.1641 54.6518 98.1447 54.6048C98.1252 54.5578 98.1152 54.5075 98.1152 54.4567V43.293C98.1152 43.2425 98.1253 43.1925 98.1448 43.146C98.1643 43.0994 98.193 43.0573 98.229 43.0219C98.265 42.9866 98.3077 42.9588 98.3546 42.9401C98.4015 42.9215 98.4517 42.9124 98.5021 42.9134H101.374V54.4567C101.374 54.5593 101.333 54.6578 101.261 54.7304C101.188 54.8029 101.09 54.8437 100.987 54.8437Z" fill="#3E3A39"/>
<path d="M99.6255 42.9506V44.3721H104.632V54.8437H106.358C106.559 54.8437 106.758 54.804 106.944 54.7268C107.129 54.6497 107.298 54.5366 107.44 54.3942C107.581 54.2517 107.693 54.0826 107.77 53.8967C107.846 53.7107 107.885 53.5115 107.884 53.3105V44.8633C107.884 44.356 107.682 43.8695 107.324 43.5108C106.965 43.1521 106.479 42.9506 105.972 42.9506H99.6255Z" fill="#3E3A39"/>
<path d="M111.938 43.9851V37.1752C111.938 37.0746 111.898 36.978 111.827 36.9068C111.756 36.8356 111.66 36.7957 111.559 36.7957H109.394C109.293 36.7957 109.197 36.8356 109.126 36.9068C109.055 36.978 109.015 37.0746 109.015 37.1752V43.4865C109.015 43.9944 109.216 44.4817 109.574 44.8416C109.932 45.2015 110.419 45.4046 110.927 45.4066H116.938C117.04 45.4066 117.139 45.3658 117.211 45.2933C117.284 45.2207 117.325 45.1222 117.325 45.0196V44.3647C117.325 44.3142 117.315 44.2642 117.295 44.2177C117.276 44.1711 117.247 44.129 117.211 44.0936C117.175 44.0583 117.132 44.0305 117.085 44.0118C117.038 43.9932 116.988 43.9841 116.938 43.9851H111.938Z" fill="#3E3A39"/>
<path d="M111.938 53.4222V46.3519C111.938 46.302 111.929 46.2527 111.909 46.2066C111.89 46.1605 111.862 46.1187 111.827 46.0835C111.792 46.0482 111.75 46.0203 111.704 46.0012C111.658 45.9821 111.609 45.9723 111.559 45.9723H109.394C109.344 45.9723 109.295 45.9821 109.249 46.0012C109.203 46.0203 109.161 46.0482 109.126 46.0835C109.09 46.1187 109.063 46.1605 109.043 46.2066C109.024 46.2527 109.015 46.302 109.015 46.3519V52.9236C109.014 53.1754 109.062 53.4249 109.158 53.6578C109.254 53.8907 109.394 54.1025 109.572 54.2809C109.75 54.4593 109.961 54.6008 110.193 54.6974C110.426 54.794 110.675 54.8437 110.927 54.8437H116.938C117.04 54.8437 117.139 54.803 117.211 54.7304C117.284 54.6578 117.325 54.5594 117.325 54.4567V53.8018C117.325 53.7513 117.315 53.7013 117.295 53.6548C117.276 53.6082 117.247 53.5661 117.211 53.5307C117.175 53.4954 117.132 53.4676 117.085 53.4489C117.038 53.4303 116.988 53.4212 116.938 53.4222H111.938Z" fill="#3E3A39"/>
<path d="M87.469 37.659V38.3139C87.469 38.3644 87.479 38.4144 87.4986 38.4609C87.5181 38.5075 87.5467 38.5496 87.5827 38.585C87.6188 38.6203 87.6615 38.6481 87.7084 38.6668C87.7553 38.6854 87.8054 38.6945 87.8559 38.6935H92.1783V45.9722H93.8969C94.3034 45.9722 94.6932 45.8107 94.9806 45.5232C95.268 45.2357 95.4295 44.8457 95.4295 44.4391V39.2293C95.4354 38.9769 95.3913 38.7258 95.2998 38.4905C95.2082 38.2552 95.0709 38.0404 94.896 37.8584C94.721 37.6765 94.5117 37.531 94.2802 37.4303C94.0488 37.3296 93.7996 37.2758 93.5473 37.272H87.8856C87.783 37.272 87.6846 37.3127 87.6121 37.3853C87.5395 37.4579 87.4988 37.5563 87.4988 37.659" fill="#3E3A39"/>
<path d="M79.0472 45.9723H76.7185C76.6377 45.9782 76.557 45.9585 76.4879 45.9159C76.4188 45.8734 76.3648 45.8103 76.3336 45.7354C76.3023 45.6606 76.2954 45.5778 76.3137 45.4987C76.3321 45.4197 76.3748 45.3484 76.4358 45.295L80.0292 41.4324H83.3994L79.3225 45.816C79.2886 45.856 79.2465 45.888 79.1989 45.9099C79.1513 45.9318 79.0995 45.9429 79.0472 45.9425" fill="#3E3A39"/>
<path d="M83.3399 45.9722H85.6686C85.7432 45.9716 85.8161 45.9493 85.8784 45.9081C85.9407 45.8669 85.9898 45.8086 86.0197 45.7401C86.0496 45.6717 86.059 45.596 86.0469 45.5223C86.0347 45.4486 86.0015 45.38 85.9513 45.3247L83.9723 43.1962C83.9011 43.1172 83.8137 43.0544 83.7162 43.012C83.6187 42.9697 83.5132 42.9487 83.4069 42.9506H80.3715L83.0572 45.8457C83.0931 45.8851 83.1367 45.9167 83.1853 45.9385C83.234 45.9603 83.2866 45.9717 83.3399 45.9722Z" fill="#3E3A39"/>
<path d="M63.5502 40.7179H61.0653C60.964 40.7179 60.8667 40.6782 60.7944 40.6072C60.722 40.5362 60.6804 40.4397 60.6785 40.3383V37.8525C60.6804 37.7512 60.722 37.6547 60.7944 37.5837C60.8667 37.5127 60.964 37.473 61.0653 37.473H63.5502C63.6007 37.472 63.6508 37.4811 63.6977 37.4997C63.7446 37.5183 63.7873 37.5461 63.8233 37.5815C63.8593 37.6168 63.888 37.659 63.9075 37.7055C63.927 37.7521 63.9371 37.8021 63.9371 37.8525V40.3309C63.9371 40.3814 63.927 40.4313 63.9075 40.4779C63.888 40.5244 63.8593 40.5666 63.8233 40.6019C63.7873 40.6373 63.7446 40.6651 63.6977 40.6837C63.6508 40.7024 63.6007 40.7114 63.5502 40.7105" fill="#3E3A39"/>
<path d="M56.8024 40.0033H54.5259C54.4079 40.0081 54.2905 39.9847 54.1833 39.9351C54.0762 39.8854 53.9824 39.811 53.9097 39.7179C53.837 39.6248 53.7875 39.5157 53.7652 39.3997C53.743 39.2837 53.7487 39.1641 53.7819 39.0507L54.2952 36.9743C54.3154 36.891 54.3631 36.817 54.4306 36.7643C54.4982 36.7116 54.5816 36.6833 54.6672 36.684H57.1298C57.1883 36.6832 57.2462 36.696 57.2989 36.7213C57.3517 36.7466 57.3978 36.7837 57.4339 36.8298C57.4699 36.876 57.4948 36.9298 57.5065 36.9871C57.5183 37.0444 57.5167 37.1037 57.5018 37.1603L56.8024 40.0033Z" fill="#3E3A39"/>
<path d="M68.5051 42.2659L70.4023 37.0561C70.4692 36.87 70.2832 36.6765 70.0303 36.6765H67.5752C67.4989 36.6726 67.4232 36.691 67.3572 36.7293C67.2911 36.7676 67.2376 36.8242 67.2032 36.8924L65.1201 42.6082C64.9861 42.9878 65.3507 43.3525 65.864 43.3525H73.2368C73.3262 43.361 73.4154 43.3349 73.486 43.2795C73.5567 43.2241 73.6033 43.1436 73.6162 43.0548V42.5412C73.6033 42.4524 73.5567 42.3719 73.486 42.3165C73.4154 42.2611 73.3262 42.2349 73.2368 42.2435L68.5051 42.2659Z" fill="#3E3A39"/>
<path d="M78.5637 39.7801H76.5252C76.4655 39.78 76.4067 39.7661 76.3533 39.7395C76.3 39.713 76.2534 39.6744 76.2174 39.6268C76.1814 39.5793 76.1569 39.524 76.1457 39.4654C76.1346 39.4068 76.1371 39.3464 76.1532 39.2889L76.7707 37.1306C76.7945 37.0499 76.8434 36.979 76.9103 36.9281C76.9772 36.8773 77.0586 36.8491 77.1427 36.8478H79.1812C79.2407 36.8475 79.2995 36.8612 79.3527 36.8878C79.406 36.9145 79.4522 36.9533 79.4877 37.0011C79.5232 37.0489 79.547 37.1044 79.557 37.1631C79.5671 37.2218 79.5632 37.2821 79.5457 37.339L78.9282 39.5048C78.9067 39.5847 78.8592 39.6551 78.7932 39.705C78.7272 39.7549 78.6464 39.7813 78.5637 39.7801Z" fill="#3E3A39"/>
<path d="M36.2613 46.8951C36.3049 46.8137 36.3267 46.7225 36.3247 46.6302C36.3226 46.5379 36.2968 46.4476 36.2496 46.3683C36.2024 46.2889 36.1356 46.2231 36.0555 46.1772C35.9755 46.1312 35.8849 46.1068 35.7926 46.1062H34.9073C34.5797 46.1062 34.2656 46.2364 34.034 46.4681C33.8024 46.6998 33.6723 47.014 33.6723 47.3417V48.3613L45.933 48.3241C43.1877 50.2963 35.376 53.0947 31.5891 54.4864C31.5501 54.503 31.5179 54.5324 31.4979 54.5698C31.4779 54.6072 31.4712 54.6503 31.479 54.692C31.4868 54.7337 31.5086 54.7715 31.5409 54.799C31.5731 54.8266 31.6137 54.8424 31.6561 54.8437H36.3357C36.6857 54.843 37.0338 54.7929 37.3698 54.6948C40.182 53.8687 46.3793 51.6211 49.385 49.18C49.6841 48.9378 49.925 48.6315 50.0899 48.2837C50.2547 47.9359 50.3393 47.5554 50.3373 47.1705C50.3373 47.1337 50.3299 47.0973 50.3156 47.0634C50.3013 47.0294 50.2804 46.9988 50.254 46.9731C50.2277 46.9474 50.1965 46.9273 50.1622 46.9139C50.1279 46.9005 50.0913 46.8941 50.0546 46.8951H36.2613Z" fill="#3E3A39"/>
<path d="M34.6097 50.5047H32.1248C32.0874 50.5048 32.0506 50.4957 32.0176 50.4783C31.9845 50.461 31.9561 50.4359 31.9349 50.4051C31.9137 50.3744 31.9002 50.3389 31.8957 50.3018C31.8912 50.2647 31.8958 50.2271 31.9091 50.1921L33.2184 46.6123C33.2715 46.4748 33.3641 46.3561 33.4846 46.2713C33.6052 46.1865 33.7481 46.1394 33.8955 46.136H36.3803C36.4171 46.1376 36.453 46.1477 36.4852 46.1655C36.5174 46.1833 36.545 46.2083 36.5659 46.2386C36.5868 46.2689 36.6004 46.3036 36.6057 46.34C36.6109 46.3765 36.6076 46.4136 36.5961 46.4486L35.2867 50.0284C35.2337 50.166 35.141 50.2846 35.0205 50.3694C34.9 50.4542 34.757 50.5013 34.6097 50.5047Z" fill="#3E3A39"/>
<path d="M34.5204 49.6042C36.9457 50.9811 42.3247 53.571 45.0402 54.7097C45.4971 54.9017 45.9879 55.0004 46.4835 55H50.9473C50.9876 54.9972 51.0258 54.9813 51.0563 54.9548C51.0868 54.9283 51.1078 54.8926 51.1162 54.8531C51.1246 54.8136 51.1199 54.7725 51.1029 54.7359C51.0858 54.6993 51.0573 54.6692 51.0217 54.6502C48.0458 53.3031 42.5925 50.6536 40.435 49.4777C40.1709 49.3312 39.8739 49.2543 39.572 49.2544H34.6097C34.5682 49.2542 34.5278 49.2679 34.495 49.2932C34.4622 49.3186 34.4388 49.3542 34.4285 49.3944C34.4182 49.4346 34.4217 49.4771 34.4384 49.5151C34.455 49.5531 34.4839 49.5845 34.5204 49.6042Z" fill="#3E3A39"/>
<path d="M82.6778 26.4581H73.0583C72.1506 26.4581 71.2801 26.0974 70.6383 25.4553C69.9965 24.8133 69.636 23.9425 69.636 23.0345V1.38431C69.636 1.02112 69.7802 0.672801 70.0369 0.415986C70.2937 0.15917 70.6418 0.0148926 71.0049 0.0148926H75.1116C75.2914 0.0148926 75.4694 0.0503134 75.6355 0.119133C75.8016 0.187953 75.9525 0.288823 76.0796 0.415986C76.2067 0.543148 76.3075 0.694112 76.3763 0.860257C76.4451 1.0264 76.4805 1.20448 76.4805 1.38431V19.611H82.6778C83.0409 19.611 83.3891 19.7552 83.6458 20.0121C83.9025 20.2689 84.0468 20.6172 84.0468 20.9804V25.0886C84.0468 25.4518 83.9025 25.8001 83.6458 26.057C83.3891 26.3138 83.0409 26.4581 82.6778 26.4581Z" fill="#C4D700"/>
<path d="M87.2161 25.0886V1.38431C87.2161 1.02112 87.3603 0.672801 87.617 0.415986C87.8737 0.15917 88.2219 0.0148926 88.585 0.0148926H92.6917C93.0548 0.0148926 93.403 0.15917 93.6597 0.415986C93.9164 0.672801 94.0606 1.02112 94.0606 1.38431V25.0886C94.0606 25.4518 93.9164 25.8001 93.6597 26.057C93.403 26.3138 93.0548 26.4581 92.6917 26.4581H88.585C88.2219 26.4581 87.8737 26.3138 87.617 26.057C87.3603 25.8001 87.2161 25.4518 87.2161 25.0886Z" fill="#C4D700"/>
<path d="M116.61 26.458C116.102 26.4573 115.601 26.3442 115.142 26.1267C114.682 25.9093 114.277 25.5929 113.954 25.2003L104.246 13.1434V25.0886C104.246 25.4518 104.101 25.8001 103.845 26.057C103.588 26.3138 103.24 26.458 102.877 26.458H98.7551C98.392 26.458 98.0439 26.3138 97.7871 26.057C97.5304 25.8001 97.3862 25.4518 97.3862 25.0886V1.3843C97.3842 1.20322 97.4182 1.02354 97.4861 0.855677C97.554 0.687809 97.6545 0.535084 97.7818 0.406341C97.9091 0.277598 98.0607 0.175395 98.2278 0.105646C98.3948 0.0358973 98.5741 -1.06958e-05 98.7551 2.38982e-09H100.808C101.319 0.000397678 101.823 0.114864 102.284 0.335044C102.745 0.555223 103.151 0.875559 103.472 1.27267L113.188 13.3295V1.3843C113.188 1.02111 113.332 0.672793 113.589 0.415978C113.846 0.159162 114.194 0.0148846 114.557 0.0148846H118.664C118.845 0.0129162 119.024 0.0468839 119.192 0.114822C119.36 0.18276 119.513 0.283318 119.641 0.410677C119.77 0.538036 119.872 0.689665 119.942 0.856788C120.012 1.02391 120.048 1.20321 120.048 1.3843V25.0886C120.048 25.4518 119.903 25.8001 119.647 26.057C119.39 26.3138 119.042 26.458 118.679 26.458H116.61Z" fill="#C4D700"/>
<path d="M126.721 26.458H124.668C124.306 26.4561 123.96 26.3109 123.705 26.0543C123.449 25.7977 123.306 25.4505 123.306 25.0886V1.3843C123.306 1.02111 123.45 0.672794 123.707 0.415978C123.964 0.159162 124.312 0.0148848 124.675 0.0148848H128.782C129.144 0.0168517 129.49 0.161997 129.745 0.4186C130 0.675203 130.143 1.0224 130.143 1.3843V13.3295L139.51 1.70433C139.938 1.17217 140.479 0.742772 141.094 0.4478C141.71 0.152828 142.384 -0.000199033 143.066 1.94282e-07H147.731C147.903 0.00127812 148.071 0.0509818 148.216 0.143416C148.361 0.23585 148.477 0.367274 148.551 0.522631C148.624 0.677987 148.653 0.85099 148.633 1.02182C148.613 1.19264 148.545 1.35438 148.438 1.4885L129.392 25.2003C129.07 25.5979 128.663 25.9186 128.2 26.1388C127.738 26.3589 127.233 26.4731 126.721 26.4729" fill="#C4D700"/>
<path d="M144.39 26.458C143.709 26.4586 143.035 26.3065 142.42 26.0128C141.805 25.7192 141.263 25.2915 140.834 24.7611L133.275 15.3761C132.093 13.8876 137.419 9.60821 138.61 11.0818L149.769 24.9695C149.879 25.1061 149.947 25.2713 149.966 25.4456C149.985 25.6198 149.953 25.7957 149.875 25.9525C149.796 26.1092 149.675 26.2402 149.524 26.3298C149.374 26.4194 149.2 26.4639 149.025 26.458H144.39Z" fill="#C4D700"/>
<path d="M64.4133 26.458H53.9977C52.2399 26.5096 50.4895 26.2092 48.8493 25.5746C47.2092 24.9399 45.7124 23.9838 44.4468 22.7623C43.1813 21.5408 42.1725 20.0786 41.4797 18.4616C40.787 16.8447 40.4243 15.1055 40.4129 13.3463C40.4015 11.5871 40.7416 9.84342 41.4133 8.2176C42.0851 6.59177 43.0748 5.11663 44.3244 3.87883C45.574 2.64104 47.0583 1.66554 48.6901 1.00966C50.3219 0.353776 52.0682 0.0307326 53.8266 0.0595054H64.4133C64.7652 0.0594999 65.1028 0.198835 65.3523 0.447065C65.6019 0.695294 65.743 1.03224 65.745 1.38427V5.55206C65.745 5.90607 65.605 6.2457 65.3554 6.49672C65.1059 6.74774 64.7672 6.88974 64.4133 6.89171H53.9977C52.321 6.8809 50.706 7.52363 49.495 8.68371C48.2839 9.84378 47.5721 11.43 47.5102 13.1062C47.4914 13.955 47.6422 14.799 47.9537 15.5887C48.2652 16.3785 48.7312 17.0981 49.3243 17.7053C49.9175 18.3125 50.6258 18.7952 51.4079 19.125C52.1899 19.4548 53.0299 19.625 53.8786 19.6258H64.4133C64.7665 19.6258 65.1052 19.7662 65.355 20.016C65.6047 20.2658 65.745 20.6047 65.745 20.958V25.1258C65.745 25.4791 65.6047 25.818 65.355 26.0678C65.1052 26.3177 64.7665 26.458 64.4133 26.458Z" fill="#00AECC"/>
<path d="M34.4311 14.498C34.3034 14.4975 34.1772 14.4704 34.0605 14.4185C33.9437 14.3667 33.839 14.2911 33.753 14.1967C33.667 14.1022 33.6015 13.9909 33.5607 13.8698C33.5199 13.7488 33.5047 13.6205 33.5161 13.4933C33.5469 13.2631 33.6607 13.0522 33.836 12.9C34.0114 12.7479 34.2362 12.6651 34.4683 12.6671H36.9011C37.1517 12.6671 37.3921 12.5676 37.5692 12.3903C37.7464 12.213 37.846 11.9726 37.846 11.7219C37.846 11.4713 37.7464 11.2308 37.5692 11.0536C37.3921 10.8763 37.1517 10.7767 36.9011 10.7767H34.4683C34.2362 10.7788 34.0114 10.696 33.836 10.5439C33.6607 10.3917 33.5469 10.1808 33.5161 9.95063C33.5036 9.82313 33.518 9.69442 33.5583 9.57283C33.5987 9.45124 33.6641 9.33948 33.7503 9.24478C33.8366 9.15008 33.9418 9.07454 34.059 9.02306C34.1763 8.97157 34.3031 8.94528 34.4311 8.9459H36.9011C37.1517 8.9459 37.3921 8.84631 37.5692 8.66905C37.7464 8.49179 37.846 8.25138 37.846 8.0007C37.846 7.75002 37.7464 7.5096 37.5692 7.33234C37.3921 7.15509 37.1517 7.0555 36.9011 7.0555H34.4683C34.2362 7.05756 34.0114 6.97474 33.836 6.82262C33.6607 6.67049 33.5469 6.45953 33.5161 6.22939C33.5036 6.10153 33.518 5.97248 33.5583 5.85051C33.5986 5.72853 33.6639 5.61631 33.75 5.52104C33.8362 5.42576 33.9413 5.34953 34.0585 5.29721C34.1758 5.24489 34.3027 5.21764 34.4311 5.21721H36.9011C37.0249 5.21819 37.1476 5.19466 37.2622 5.14797C37.3767 5.10129 37.481 5.03237 37.5688 4.94519C37.6566 4.85802 37.7264 4.75431 37.7739 4.64004C37.8215 4.52578 37.846 4.40323 37.846 4.27945V3.53521C37.8548 2.64038 37.5176 1.77676 36.9048 1.12487C36.292 0.472976 35.451 0.0832787 34.5576 0.0372348C34.1001 0.0262821 33.645 0.107238 33.2194 0.275312C32.7937 0.443386 32.406 0.695164 32.0793 1.01575C31.7526 1.33634 31.4935 1.71922 31.3173 2.14174C31.1411 2.56427 31.0514 3.01786 31.0535 3.47567V25.0589C31.0535 25.4122 31.1938 25.7511 31.4436 26.0009C31.6933 26.2507 32.032 26.3911 32.3852 26.3911H36.5515C36.9047 26.3911 37.2434 26.2507 37.4931 26.0009C37.7429 25.7511 37.8832 25.4122 37.8832 25.0589V15.3836C37.8832 15.133 37.7836 14.8926 37.6064 14.7153C37.4293 14.538 37.1889 14.4385 36.9383 14.4385L34.4311 14.498Z" fill="#00AECC"/>
<path d="M20.8834 25.0811V10.8734L16.1145 14.8477C15.4896 15.3736 14.6992 15.662 13.8826 15.662C13.066 15.662 12.2756 15.3736 11.6507 14.8477L6.87437 10.8734V25.0811C6.87438 25.4332 6.73509 25.7709 6.48695 26.0205C6.23882 26.2702 5.902 26.4114 5.5501 26.4134H1.33177C0.978573 26.4134 0.639847 26.273 0.390102 26.0232C0.140357 25.7733 5.22534e-05 25.4345 5.22534e-05 25.0811V3.61701C-0.0129185 3.07822 0.0969042 2.54356 0.321194 2.05355C0.545484 1.56354 0.878354 1.13105 1.29457 0.788859C1.91691 0.295817 2.68984 0.0318989 3.48365 0.0413848C4.27746 0.0508707 5.04386 0.333184 5.65425 0.840957L13.8826 7.68805L22.0663 0.907939C22.4698 0.558618 22.9473 0.305451 23.4627 0.167509C23.9782 0.0295672 24.5183 0.0104483 25.0422 0.111592C25.8234 0.269675 26.5258 0.693289 27.0303 1.31054C27.5347 1.92779 27.8102 2.70064 27.8098 3.49793V25.0811C27.8098 25.4345 27.6695 25.7733 27.4197 26.0232C27.17 26.273 26.8313 26.4134 26.4781 26.4134H22.2151C21.8619 26.4134 21.5232 26.273 21.2734 26.0232C21.0237 25.7733 20.8834 25.4345 20.8834 25.0811Z" fill="#00AECC"/>
</g>
<defs>
<clipPath id="clip0_276_10648">
<rect width="150" height="55" fill="white"/>
</clipPath>
</defs>
</svg>
