<svg width="48" height="44" viewBox="0 0 48 44" fill="none" xmlns="http://www.w3.org/2000/svg">
<g clip-path="url(#clip0_473_9975)">
<path d="M42.89 20.1C41.6274 20.0947 40.4183 19.5902 39.5265 18.6965C38.6346 17.8028 38.1326 16.5925 38.13 15.33V4.77C38.13 3.50492 37.6274 2.29165 36.7329 1.3971C35.8383 0.502552 34.6251 0 33.36 0C32.0949 0 30.8816 0.502552 29.9871 1.3971C29.0925 2.29165 28.59 3.50492 28.59 4.77V15.46C28.5338 16.686 28.0072 17.8432 27.1198 18.6909C26.2323 19.5386 25.0523 20.0117 23.825 20.0117C22.5977 20.0117 21.4176 19.5386 20.5302 18.6909C19.6427 17.8432 19.1162 16.686 19.06 15.46V10.18C19.06 8.91492 18.5574 7.70165 17.6629 6.8071C16.7683 5.91255 15.5551 5.41 14.29 5.41C13.0249 5.41 11.8116 5.91255 10.9171 6.8071C10.0225 7.70165 9.51999 8.91492 9.51999 10.18V15.33C9.51736 16.5925 9.01533 17.8028 8.12351 18.6965C7.23169 19.5902 6.02252 20.0947 4.75999 20.1C3.49571 20.1026 2.28398 20.606 1.39 21.5C0.496028 22.394 -0.00737224 23.6057 -0.0100144 24.87V30.02C-0.0395295 30.6641 0.0618511 31.3075 0.288001 31.9114C0.514151 32.5152 0.860376 33.0669 1.30575 33.5331C1.75113 33.9994 2.28641 34.3705 2.87926 34.6241C3.4721 34.8776 4.1102 35.0083 4.75499 35.0083C5.39977 35.0083 6.03787 34.8776 6.63071 34.6241C7.22356 34.3705 7.75884 33.9994 8.20422 33.5331C8.6496 33.0669 8.99582 32.5152 9.22197 31.9114C9.44812 31.3075 9.5495 30.6641 9.51999 30.02V24.87C9.51999 23.6049 10.0225 22.3916 10.9171 21.4971C11.8116 20.6026 13.0249 20.1 14.29 20.1C15.5551 20.1 16.7683 20.6026 17.6629 21.4971C18.5574 22.3916 19.06 23.6049 19.06 24.87V39.04C19.0305 39.6841 19.1319 40.3275 19.358 40.9314C19.5842 41.5352 19.9304 42.0869 20.3758 42.5531C20.8211 43.0194 21.3564 43.3905 21.9493 43.6441C22.5421 43.8976 23.1802 44.0283 23.825 44.0283C24.4698 44.0283 25.1079 43.8976 25.7007 43.6441C26.2936 43.3905 26.8288 43.0194 27.2742 42.5531C27.7196 42.0869 28.0658 41.5352 28.292 40.9314C28.5181 40.3275 28.6195 39.6841 28.59 39.04V24.87C28.59 23.6049 29.0925 22.3916 29.9871 21.4971C30.8816 20.6026 32.0949 20.1 33.36 20.1C34.6251 20.1 35.8383 20.6026 36.7329 21.4971C37.6274 22.3916 38.13 23.6049 38.13 24.87V31.05C38.1005 31.6941 38.2019 32.3375 38.428 32.9414C38.6542 33.5452 39.0004 34.0969 39.4458 34.5631C39.8911 35.0294 40.4264 35.4005 41.0193 35.6541C41.6121 35.9076 42.2502 36.0383 42.895 36.0383C43.5398 36.0383 44.1779 35.9076 44.7707 35.6541C45.3636 35.4005 45.8988 35.0294 46.3442 34.5631C46.7896 34.0969 47.1358 33.5452 47.362 32.9414C47.5881 32.3375 47.6895 31.6941 47.66 31.05V24.87C47.6573 23.6057 47.1539 22.394 46.26 21.5C45.366 20.606 44.1543 20.1026 42.89 20.1Z" fill="#00AECC"/>
</g>
<defs>
<clipPath id="clip0_473_9975">
<rect width="47.67" height="43.81" fill="white"/>
</clipPath>
</defs>
</svg>
