<svg width="32" height="32" viewBox="0 0 32 32" fill="none" xmlns="http://www.w3.org/2000/svg">
<circle cx="16" cy="16" r="16" fill="#EAEAEA"/>
<g filter="url(#filter0_i_1244_17271)">
<circle cx="16" cy="16" r="15" fill="url(#paint0_linear_1244_17271)"/>
</g>
<path d="M21.7949 15.9033C22.0709 15.9035 22.2949 16.1273 22.2949 16.4033C22.2949 19.6909 19.7592 22.3848 16.5371 22.6396V23.8066L16.5273 23.9072C16.4806 24.1349 16.2786 24.3066 16.0371 24.3066C15.7956 24.3066 15.5937 24.1349 15.5469 23.9072L15.5371 23.8066V22.6396C12.315 22.3848 9.77936 19.6909 9.7793 16.4033C9.7793 16.1272 10.0032 15.9034 10.2793 15.9033C10.5554 15.9033 10.7793 16.1272 10.7793 16.4033C10.7794 19.3069 13.1335 21.6611 16.0371 21.6611C18.9407 21.661 21.2949 19.3069 21.2949 16.4033C21.2949 16.1272 21.5188 15.9034 21.7949 15.9033ZM16.0371 9.00098C18.3084 9.00098 20.1494 10.842 20.1494 13.1133V16.4033C20.1494 18.6746 18.3084 20.5156 16.0371 20.5156C13.7658 20.5156 11.9249 18.6746 11.9248 16.4033V13.1133C11.9248 10.842 13.7658 9.00099 16.0371 9.00098Z" fill="#EAEAEA"/>
<defs>
<filter id="filter0_i_1244_17271" x="1" y="1" width="30" height="30" filterUnits="userSpaceOnUse" color-interpolation-filters="sRGB">
<feFlood flood-opacity="0" result="BackgroundImageFix"/>
<feBlend mode="normal" in="SourceGraphic" in2="BackgroundImageFix" result="shape"/>
<feColorMatrix in="SourceAlpha" type="matrix" values="0 0 0 0 0 0 0 0 0 0 0 0 0 0 0 0 0 0 127 0" result="hardAlpha"/>
<feOffset/>
<feGaussianBlur stdDeviation="0.5"/>
<feComposite in2="hardAlpha" operator="arithmetic" k2="-1" k3="1"/>
<feColorMatrix type="matrix" values="0 0 0 0 1 0 0 0 0 1 0 0 0 0 1 0 0 0 0.16 0"/>
<feBlend mode="normal" in2="shape" result="effect1_innerShadow_1244_17271"/>
</filter>
<linearGradient id="paint0_linear_1244_17271" x1="16" y1="1" x2="16" y2="31" gradientUnits="userSpaceOnUse">
<stop stop-color="white"/>
<stop offset="1" stop-color="#FAFAFA"/>
</linearGradient>
</defs>
</svg>
