<svg width="50" height="50" viewBox="0 0 50 50" fill="none" xmlns="http://www.w3.org/2000/svg">
<circle cx="25" cy="25" r="25" fill="#EAEAEA"/>
<g filter="url(#filter0_i_1388_17241)">
<circle cx="25" cy="25" r="23" fill="url(#paint0_linear_1388_17241)"/>
</g>
<path d="M34 24.25C34.5523 24.25 35 24.6977 35 25.25C35 30.2971 31.1649 34.4475 26.25 34.9482V36.5C26.25 37.0523 25.8023 37.5 25.25 37.5C24.6977 37.5 24.25 37.0523 24.25 36.5V34.9482C19.3351 34.4475 15.5 30.2971 15.5 25.25C15.5 24.6977 15.9477 24.25 16.5 24.25C17.0523 24.25 17.5 24.6977 17.5 25.25C17.5 29.5302 20.9698 33 25.25 33C29.5302 33 33 29.5302 33 25.25C33 24.6977 33.4477 24.25 34 24.25ZM25.25 14C28.7018 14 31.5 16.7982 31.5 20.25V25.25C31.5 28.7018 28.7018 31.5 25.25 31.5C21.7982 31.5 19 28.7018 19 25.25V20.25C19 16.7982 21.7982 14 25.25 14Z" fill="#00AECC"/>
<defs>
<filter id="filter0_i_1388_17241" x="2" y="2" width="46" height="46" filterUnits="userSpaceOnUse" color-interpolation-filters="sRGB">
<feFlood flood-opacity="0" result="BackgroundImageFix"/>
<feBlend mode="normal" in="SourceGraphic" in2="BackgroundImageFix" result="shape"/>
<feColorMatrix in="SourceAlpha" type="matrix" values="0 0 0 0 0 0 0 0 0 0 0 0 0 0 0 0 0 0 127 0" result="hardAlpha"/>
<feOffset/>
<feGaussianBlur stdDeviation="0.5"/>
<feComposite in2="hardAlpha" operator="arithmetic" k2="-1" k3="1"/>
<feColorMatrix type="matrix" values="0 0 0 0 1 0 0 0 0 1 0 0 0 0 1 0 0 0 0.16 0"/>
<feBlend mode="normal" in2="shape" result="effect1_innerShadow_1388_17241"/>
</filter>
<linearGradient id="paint0_linear_1388_17241" x1="25" y1="2" x2="25" y2="48" gradientUnits="userSpaceOnUse">
<stop stop-color="white"/>
<stop offset="1" stop-color="#FAFAFA"/>
</linearGradient>
</defs>
</svg>
