<svg width="16" height="16" viewBox="0 0 16 16" fill="none" xmlns="http://www.w3.org/2000/svg">
<path d="M5.33341 12.9497L3.83341 14.4497C3.70008 14.583 3.54453 14.647 3.36675 14.6417C3.18897 14.6363 3.03341 14.5668 2.90008 14.433C2.77786 14.2997 2.71408 14.1441 2.70875 13.9663C2.70341 13.7886 2.76719 13.633 2.90008 13.4997L4.40008 11.9997H3.56675C3.37786 11.9997 3.21964 11.9359 3.09208 11.8083C2.96453 11.6808 2.90053 11.5223 2.90008 11.333C2.89964 11.1437 2.96364 10.9855 3.09208 10.8583C3.22053 10.7312 3.37875 10.6672 3.56675 10.6663H6.00008C6.18897 10.6663 6.34741 10.7303 6.47541 10.8583C6.60342 10.9863 6.66719 11.1446 6.66675 11.333V13.7663C6.66675 13.9552 6.60275 14.1137 6.47475 14.2417C6.34675 14.3697 6.18853 14.4335 6.00008 14.433C5.81164 14.4326 5.65341 14.3688 5.52541 14.2417C5.39741 14.1146 5.33341 13.9561 5.33341 13.7663V12.9497ZM8.66675 14.6663C8.47786 14.6663 8.31964 14.6023 8.19208 14.4743C8.06453 14.3463 8.00053 14.1881 8.00008 13.9997V11.333C8.00008 10.7775 7.80564 10.3052 7.41675 9.91634C7.02786 9.52745 6.55564 9.33301 6.00008 9.33301H3.33341C3.14453 9.33301 2.9863 9.26901 2.85875 9.14101C2.73119 9.01301 2.66719 8.85479 2.66675 8.66634V2.66634C2.66675 2.29967 2.79741 1.9859 3.05875 1.72501C3.32008 1.46412 3.63386 1.33345 4.00008 1.33301H9.33342L13.3334 5.33301V13.333C13.3334 13.6997 13.203 14.0137 12.9421 14.275C12.6812 14.5363 12.3672 14.6668 12.0001 14.6663H8.66675ZM8.66675 5.99967H12.0001L8.66675 2.66634V5.99967Z" fill="white"/>
</svg>
