<svg width="16" height="16" viewBox="0 0 16 16" fill="none" xmlns="http://www.w3.org/2000/svg">
<path d="M8 16C6.32857 16 4.91086 15.4548 3.74686 14.3643C2.58286 13.2739 2.00057 11.9455 2 10.3792V7.16732H14V10.3792C14 11.945 13.418 13.2734 12.254 14.3643C11.09 15.4553 9.672 16.0005 8 16ZM2 5.56138C2 4.15618 2.48571 2.92844 3.45714 1.87815C4.42857 0.827863 5.65714 0.201813 7.14286 0V5.56138H2ZM8.85714 5.56138V0.000803104C10.3429 0.201546 11.5714 0.827328 12.5429 1.87815C13.5143 2.92897 14 4.15671 14 5.56138H8.85714Z" fill="#BBBDBF"/>
</svg>
