<svg width="24" height="24" viewBox="0 0 24 24" fill="none" xmlns="http://www.w3.org/2000/svg">
<rect width="24" height="24" rx="4" fill="white"/>
<path d="M15.1226 4.48047C15.4038 4.38665 15.7075 4.38666 15.9888 4.48047L15.9878 4.48145C16.178 4.54442 16.3316 4.65262 16.4673 4.77051C16.5993 4.88526 16.7475 5.03796 16.9165 5.21094L18.4634 6.79395C18.6332 6.96781 18.7827 7.12026 18.895 7.25586C19.0105 7.39537 19.1153 7.55015 19.1753 7.74023C19.2651 8.02149 19.2652 8.3252 19.1753 8.60645L19.1743 8.60547C19.1141 8.79618 19.0104 8.95081 18.895 9.08984C18.7831 9.2247 18.6336 9.37668 18.4644 9.55078L18.4634 9.55176L15.9136 12.1621L9.63232 18.5898H19.1108C19.3867 18.59 19.6106 18.814 19.6108 19.0898C19.6107 19.3657 19.3867 19.5897 19.1108 19.5898H4.88916C4.6131 19.5898 4.3893 19.3659 4.38916 19.0898V15.4512C4.38926 15.3208 4.44062 15.1959 4.53174 15.1025L11.6431 7.82324L14.1929 5.21289C14.3628 5.03891 14.5118 4.88648 14.644 4.77148C14.7798 4.65351 14.9326 4.54451 15.1226 4.48145V4.48047ZM5.38916 15.6543V18.5898H8.23389L14.856 11.8115L11.9995 8.88867L5.38916 15.6543ZM15.6724 5.42871C15.5966 5.40346 15.5147 5.40346 15.439 5.42871L15.437 5.42969C15.4258 5.43345 15.3896 5.44872 15.3003 5.52637C15.206 5.60837 15.0902 5.72632 14.9087 5.91211L12.6987 8.17285L15.5552 11.0957L17.7485 8.85352C17.9303 8.66663 18.0451 8.54808 18.1255 8.45117C18.2015 8.35948 18.2172 8.32065 18.2222 8.30469L18.2231 8.30176C18.2497 8.21863 18.2496 8.12808 18.2231 8.04492L18.2222 8.04199C18.2171 8.02562 18.2005 7.98537 18.1245 7.89355C18.0445 7.79701 17.9296 7.67847 17.7485 7.49316L16.2017 5.91016C16.0211 5.72533 15.9051 5.60715 15.811 5.52539C15.7664 5.48663 15.735 5.46297 15.7134 5.44922L15.6724 5.42871Z" fill="#31373D"/>
</svg>
