<svg width="16" height="16" viewBox="0 0 16 16" fill="none" xmlns="http://www.w3.org/2000/svg">
<path d="M9.00008 4.33333L11.6667 7M12.6674 14C12.3138 14 11.9747 13.8595 11.7246 13.6095C11.4746 13.3594 11.3341 13.0203 11.3341 12.6667C11.3341 12.313 11.4746 11.9739 11.7246 11.7239C11.9747 11.4738 12.3138 11.3333 12.6674 11.3333M12.6674 14C13.021 14 13.3602 13.8595 13.6102 13.6095C13.8603 13.3594 14.0007 13.0203 14.0007 12.6667C14.0007 12.313 13.8603 11.9739 13.6102 11.7239C13.3602 11.4738 13.021 11.3333 12.6674 11.3333M12.6674 14V15M12.6674 11.3333V10.3333M14.6881 11.5L13.8221 12M11.5134 13.3333L10.6467 13.8333M10.6467 11.5L11.5134 12M13.8221 13.3333L14.6887 13.8333M2.66675 13.3333H5.33341L12.3334 6.33333C12.5085 6.15824 12.6474 5.95037 12.7422 5.72159C12.8369 5.49282 12.8857 5.24762 12.8857 5C12.8857 4.75238 12.8369 4.50718 12.7422 4.2784C12.6474 4.04963 12.5085 3.84176 12.3334 3.66666C12.1583 3.49157 11.9504 3.35268 11.7217 3.25791C11.4929 3.16315 11.2477 3.11438 11.0001 3.11438C10.7525 3.11438 10.5073 3.16315 10.2785 3.25791C10.0497 3.35268 9.84184 3.49157 9.66675 3.66666L2.66675 10.6667V13.3333Z" stroke="#31373D" stroke-linecap="round" stroke-linejoin="round"/>
</svg>
