<svg width="16" height="16" viewBox="0 0 16 16" fill="none" xmlns="http://www.w3.org/2000/svg">
<path d="M14.3 4.66667H10.1C9.91435 4.66667 9.7363 4.7369 9.60503 4.86193C9.47375 4.98695 9.4 5.15652 9.4 5.33333V7.33333H8V2.66667C8 2.48986 7.92625 2.32029 7.79497 2.19526C7.6637 2.07024 7.48565 2 7.3 2H1.7C1.51435 2 1.3363 2.07024 1.20503 2.19526C1.07375 2.32029 1 2.48986 1 2.66667V13.3333C1 13.5101 1.07375 13.6797 1.20503 13.8047C1.3363 13.9298 1.51435 14 1.7 14H14.3C14.4857 14 14.6637 13.9298 14.795 13.8047C14.9263 13.6797 15 13.5101 15 13.3333V5.33333C15 5.15652 14.9263 4.98695 14.795 4.86193C14.6637 4.7369 14.4857 4.66667 14.3 4.66667ZM5.2 4H6.6V5.33333H5.2V4ZM3.8 10.6667H2.4V9.33333H3.8V10.6667ZM3.8 8H2.4V6.66667H3.8V8ZM3.8 5.33333H2.4V4H3.8V5.33333ZM6.6 10.6667H5.2V9.33333H6.6V10.6667ZM6.6 8H5.2V6.66667H6.6V8ZM12.9 10.6667H11.5V9.33333H12.9V10.6667ZM12.9 8H11.5V6.66667H12.9V8Z" fill="#BBBDBF"/>
</svg>
