<svg width="100" height="18" viewBox="0 0 100 18" fill="none" xmlns="http://www.w3.org/2000/svg">
<path d="M55.1183 17.6375H48.7004C48.0953 17.6375 47.515 17.3971 47.0871 16.9693C46.6592 16.5414 46.4189 15.9611 46.4189 15.356V0.913089C46.4202 0.670597 46.5174 0.438486 46.6894 0.267481C46.8613 0.0964764 47.0939 0.000484739 47.3364 0.000488281H50.0693C50.3113 0.000488281 50.5434 0.096638 50.7146 0.267784C50.8857 0.43893 50.9819 0.671052 50.9819 0.913089V13.0745H55.1183C55.3603 13.0745 55.5925 13.1707 55.7636 13.3418C55.9348 13.5129 56.0309 13.7451 56.0309 13.9871V16.715C56.0296 16.9566 55.933 17.188 55.7622 17.3589C55.5913 17.5297 55.3599 17.6263 55.1183 17.6276" fill="#C4D700"/>
<path d="M58.1639 16.715V0.913089C58.1652 0.671453 58.2617 0.440087 58.4326 0.269222C58.6035 0.0983575 58.8348 0.00179093 59.0765 0.000488281H61.8143C62.0563 0.000488281 62.2884 0.096638 62.4596 0.267784C62.6307 0.43893 62.7268 0.671052 62.7268 0.913089V16.715C62.7275 16.8353 62.7044 16.9545 62.6588 17.0658C62.6132 17.1771 62.5461 17.2782 62.4613 17.3635C62.3765 17.4488 62.2757 17.5164 62.1646 17.5626C62.0536 17.6088 61.9345 17.6326 61.8143 17.6326H59.0566C58.8176 17.6261 58.5905 17.5266 58.4238 17.3552C58.257 17.1838 58.1638 16.9541 58.1639 16.715Z" fill="#C4D700"/>
<path d="M77.75 17.6375C77.4083 17.6378 77.0708 17.5612 76.7627 17.4136C76.4545 17.2659 76.1834 17.0509 75.9694 16.7844L69.4969 8.74957V16.715C69.4976 16.8353 69.4745 16.9545 69.4289 17.0658C69.3833 17.1771 69.3162 17.2782 69.2314 17.3635C69.1466 17.4488 69.0458 17.5164 68.9347 17.5626C68.8237 17.6088 68.7046 17.6326 68.5843 17.6326H65.8465C65.7263 17.6326 65.6072 17.6088 65.4961 17.5626C65.3851 17.5164 65.2843 17.4488 65.1995 17.3635C65.1147 17.2782 65.0475 17.1771 65.002 17.0658C64.9564 16.9545 64.9333 16.8353 64.9339 16.715V0.913089C64.9339 0.793245 64.9575 0.674576 65.0034 0.563854C65.0493 0.453132 65.1165 0.352528 65.2012 0.267785C65.286 0.183042 65.3866 0.115818 65.4973 0.0699559C65.608 0.0240934 65.7267 0.000488811 65.8465 0.000488811H67.2105C67.5522 0.00025597 67.8896 0.0767946 68.1978 0.22445C68.506 0.372105 68.7771 0.587106 68.991 0.853574L75.4387 8.88844V0.913089C75.44 0.670597 75.5373 0.438487 75.7092 0.267482C75.8812 0.0964769 76.1138 0.000485268 76.3563 0.000488811H79.0891C79.209 0.000488811 79.3276 0.0240934 79.4384 0.0699559C79.5491 0.115818 79.6497 0.183042 79.7344 0.267785C79.8192 0.352528 79.8864 0.453132 79.9323 0.563854C79.9781 0.674576 80.0017 0.793245 80.0017 0.913089V16.715C80.0017 16.8348 79.9781 16.9535 79.9323 17.0642C79.8864 17.175 79.8192 17.2756 79.7344 17.3603C79.6497 17.445 79.5491 17.5123 79.4384 17.5581C79.3276 17.604 79.209 17.6276 79.0891 17.6276L77.75 17.6375Z" fill="#C4D700"/>
<path d="M84.4805 17.6374H83.1116C82.87 17.6361 82.6386 17.5395 82.4677 17.3686C82.2969 17.1978 82.2003 16.9664 82.199 16.7248V0.912946C82.2003 0.671311 82.2969 0.439944 82.4677 0.269079C82.6386 0.0982148 82.87 0.00164828 83.1116 0.000345634H85.8494C86.0914 0.000345634 86.3236 0.0964954 86.4947 0.267641C86.6659 0.438788 86.762 0.670909 86.762 0.912946V8.8883L93.0064 1.13614C93.2898 0.783444 93.6484 0.498463 94.0559 0.30197C94.4635 0.105478 94.9098 0.00243179 95.3623 0.000345634H98.4671C98.5838 -0.00358456 98.6992 0.0260718 98.7995 0.0857889C98.8999 0.145506 98.981 0.232774 99.0333 0.33723C99.0855 0.441686 99.1066 0.558939 99.0942 0.67506C99.0817 0.79118 99.0362 0.901287 98.9631 0.992305L86.2611 16.7843C86.0481 17.0506 85.7779 17.2656 85.4706 17.4133C85.1632 17.561 84.8265 17.6376 84.4855 17.6374" fill="#C4D700"/>
<path d="M96.26 17.6374C95.805 17.6379 95.3557 17.5361 94.9453 17.3395C94.535 17.1429 94.174 16.8565 93.8893 16.5016L88.8501 10.2671C88.0615 9.27517 91.6127 6.42329 92.4013 7.40037L99.8658 16.6603C99.939 16.7513 99.9845 16.8614 99.9969 16.9776C100.009 17.0937 99.9882 17.2109 99.936 17.3154C99.8838 17.4198 99.8027 17.5071 99.7023 17.5668C99.6019 17.6265 99.4865 17.6562 99.3698 17.6523L96.26 17.6374Z" fill="#C4D700"/>
<path d="M42.9421 17.6374H35.9984C34.8429 17.6446 33.6974 17.4241 32.6271 16.9885C31.5569 16.5529 30.5829 15.9109 29.7608 15.0989C28.9387 14.2869 28.2846 13.321 27.8358 12.2562C27.387 11.1915 27.1524 10.0487 27.1452 8.89327C27.138 7.73781 27.3585 6.59225 27.7941 5.52201C28.2296 4.45176 28.8717 3.47778 29.6837 2.65568C30.4956 1.83359 31.4616 1.17947 32.5263 0.730676C33.5911 0.281882 34.7338 0.0472037 35.8893 0.0400391H42.9272C43.1627 0.0400391 43.3885 0.133574 43.555 0.30007C43.7215 0.466565 43.815 0.692379 43.815 0.927839V3.70533C43.815 3.94079 43.7215 4.1666 43.555 4.3331C43.3885 4.49959 43.1627 4.59313 42.9272 4.59313H35.9835C35.426 4.58792 34.8729 4.69257 34.3558 4.90112C33.8387 5.10966 33.3677 5.41802 32.9698 5.80858C32.5719 6.19913 32.2548 6.66424 32.0366 7.17734C31.8185 7.69045 31.7035 8.24149 31.6983 8.79903C31.6931 9.35657 31.7977 9.90967 32.0063 10.4268C32.2148 10.9439 32.5232 11.4148 32.9137 11.8127C33.3043 12.2107 33.7694 12.5278 34.2825 12.7459C34.7956 12.9641 35.3466 13.0791 35.9042 13.0843H42.9421C43.1775 13.0843 43.4033 13.1778 43.5698 13.3443C43.7363 13.5108 43.8299 13.7366 43.8299 13.9721V16.7446C43.8299 16.9805 43.7365 17.2069 43.5701 17.3742C43.4038 17.5414 43.178 17.6361 42.9421 17.6374Z" fill="#00AECC"/>
<path d="M22.9492 9.66212C22.8638 9.66253 22.7793 9.64501 22.7011 9.6107C22.623 9.57639 22.5528 9.52605 22.4953 9.46294C22.4378 9.39983 22.3942 9.32535 22.3673 9.24432C22.3404 9.16329 22.3308 9.07752 22.3391 8.99255C22.3587 8.83873 22.4342 8.69752 22.5514 8.59594C22.6685 8.49436 22.819 8.43956 22.974 8.44202H24.5958C24.7629 8.44202 24.9231 8.37565 25.0412 8.25752C25.1594 8.13939 25.2257 7.97918 25.2257 7.81212C25.2257 7.64506 25.1594 7.48485 25.0412 7.36672C24.9231 7.24859 24.7629 7.18222 24.5958 7.18222H22.974C22.819 7.18468 22.6685 7.12987 22.5514 7.02829C22.4342 6.92671 22.3587 6.7855 22.3391 6.63169C22.3316 6.54687 22.3417 6.46141 22.3689 6.38072C22.3961 6.30003 22.4398 6.22586 22.4971 6.16292C22.5545 6.09998 22.6243 6.04962 22.7021 6.01506C22.7799 5.98049 22.8641 5.96247 22.9492 5.96212H24.5958C24.7629 5.96212 24.9231 5.89575 25.0412 5.77762C25.1594 5.6595 25.2257 5.49928 25.2257 5.33222C25.2257 5.16516 25.1594 5.00495 25.0412 4.88682C24.9231 4.76869 24.7629 4.70233 24.5958 4.70233H22.974C22.819 4.70478 22.6685 4.64997 22.5514 4.54839C22.4342 4.44681 22.3587 4.3056 22.3391 4.15179C22.3316 4.06697 22.3417 3.98152 22.3689 3.90083C22.3961 3.82013 22.4398 3.74597 22.4971 3.68302C22.5545 3.62008 22.6243 3.56973 22.7021 3.53516C22.7799 3.50059 22.8641 3.48257 22.9492 3.48222H24.5958C24.6786 3.48222 24.7605 3.46593 24.8369 3.43427C24.9133 3.40261 24.9828 3.35622 25.0412 3.29773C25.0997 3.23924 25.1461 3.1698 25.1778 3.09337C25.2094 3.01695 25.2257 2.93504 25.2257 2.85233V2.35635C25.2304 1.76037 25.0052 1.18552 24.5969 0.75136C24.1886 0.317195 23.6287 0.0571307 23.0335 0.0252437C22.7275 0.0139033 22.4224 0.0644024 22.1364 0.173721C21.8504 0.28304 21.5894 0.44893 21.369 0.661467C21.1486 0.874004 20.9733 1.12882 20.8537 1.41067C20.734 1.69251 20.6725 1.9956 20.6727 2.30179V16.6852C20.6727 16.9207 20.7662 17.1465 20.9327 17.313C21.0992 17.4795 21.325 17.573 21.5605 17.573H24.3379C24.5692 17.5744 24.7919 17.4856 24.9586 17.3253C25.1253 17.1651 25.223 16.9461 25.2307 16.715V10.292C25.2307 10.125 25.1643 9.96474 25.0462 9.84661C24.9281 9.72849 24.7679 9.66212 24.6008 9.66212H22.9492Z" fill="#00AECC"/>
<path d="M13.9224 16.7148V7.2515L10.7382 9.89507C10.3243 10.2387 9.80319 10.4268 9.26518 10.4268C8.72717 10.4268 8.2061 10.2387 7.79213 9.89507L4.59803 7.2515V16.7148C4.59803 16.9502 4.5045 17.1761 4.338 17.3426C4.17151 17.5091 3.94569 17.6026 3.71023 17.6026H0.888119C0.65266 17.6026 0.426847 17.5091 0.260352 17.3426C0.0938575 17.1761 0.000322772 16.9502 0.000322772 16.7148V2.40082C-0.00559482 2.04334 0.0699251 1.6892 0.221165 1.36524C0.372405 1.04127 0.595395 0.755979 0.87324 0.530973C1.28775 0.201525 1.80318 0.0250898 2.33263 0.0314143C2.86208 0.0377388 3.37315 0.226439 3.77967 0.565696L9.26518 5.12871L14.7209 0.605375C14.9916 0.375373 15.31 0.208431 15.6531 0.116646C15.9963 0.02486 16.3555 0.0105236 16.7048 0.0746733C17.2216 0.18558 17.6849 0.469881 18.0178 0.880375C18.3507 1.29087 18.5332 1.80287 18.535 2.33138V16.7148C18.535 16.9502 18.4415 17.1761 18.275 17.3426C18.1085 17.5091 17.8827 17.6026 17.6472 17.6026H14.8102C14.5747 17.6026 14.3489 17.5091 14.1824 17.3426C14.0159 17.1761 13.9224 16.9502 13.9224 16.7148Z" fill="#00AECC"/>
</svg>
