<svg width="16" height="16" viewBox="0 0 16 16" fill="none" xmlns="http://www.w3.org/2000/svg">
<path fill-rule="evenodd" clip-rule="evenodd" d="M13.6201 9.72122L14.9677 2.98213C15.0213 2.71461 15.008 2.438 14.929 2.17686C14.85 1.91572 14.7077 1.67813 14.5148 1.48521C14.3219 1.29229 14.0843 1.15 13.8231 1.07099C13.562 0.991977 13.2854 0.978686 13.0179 1.0323L6.27878 2.38078C5.31687 2.57327 4.43345 3.04613 3.73979 3.73979C3.04613 4.43345 2.57327 5.31687 2.38078 6.27878L1.0323 13.0179C0.978686 13.2854 0.991977 13.562 1.07099 13.8231C1.15 14.0843 1.29229 14.3219 1.48521 14.5148C1.67813 14.7077 1.91572 14.85 2.17686 14.929C2.438 15.008 2.71461 15.0213 2.98213 14.9677L9.72122 13.6201C10.6834 13.4276 11.5671 12.9547 12.2609 12.2609C12.9547 11.5671 13.4276 10.6834 13.6201 9.72122ZM9.65661 8C9.65661 8.43936 9.48207 8.86073 9.1714 9.1714C8.86073 9.48207 8.43936 9.65661 8 9.65661C7.56064 9.65661 7.13927 9.48207 6.8286 9.1714C6.51792 8.86073 6.34339 8.43936 6.34339 8C6.34339 7.56064 6.51792 7.13927 6.8286 6.8286C7.13927 6.51792 7.56064 6.34339 8 6.34339C8.43936 6.34339 8.86073 6.51792 9.1714 6.8286C9.48207 7.13927 9.65661 7.56064 9.65661 8ZM11.3132 8C11.3132 8.87872 10.9642 9.72145 10.3428 10.3428C9.72145 10.9642 8.87872 11.3132 8 11.3132C7.12128 11.3132 6.27855 10.9642 5.6572 10.3428C5.03585 9.72145 4.68678 8.87872 4.68678 8C4.68678 7.12128 5.03585 6.27855 5.6572 5.6572C6.27855 5.03585 7.12128 4.68678 8 4.68678C8.87872 4.68678 9.72145 5.03585 10.3428 5.6572C10.9642 6.27855 11.3132 7.12128 11.3132 8Z" fill="#BBBDBF"/>
</svg>
