<svg width="16" height="16" viewBox="0 0 16 16" fill="none" xmlns="http://www.w3.org/2000/svg">
<path d="M13.25 15H2.75C2.26693 15 1.85449 14.8291 1.5127 14.4873C1.1709 14.1455 1 13.7331 1 13.25V8.875C1 8.62891 1.08431 8.42155 1.25293 8.25293C1.42155 8.08431 1.62891 8 1.875 8H2.75V8.875C2.75 9.11198 2.83431 9.31706 3.00293 9.49023C3.17155 9.66341 3.37891 9.75 3.625 9.75H5.375C5.62109 9.75 5.82845 9.66341 5.99707 9.49023C6.16569 9.31706 6.25 9.11198 6.25 8.875V8H9.75V8.875C9.75 9.11198 9.83431 9.31706 10.0029 9.49023C10.1715 9.66341 10.3789 9.75 10.625 9.75H12.375C12.6211 9.75 12.8285 9.66341 12.9971 9.49023C13.1657 9.31706 13.25 9.11198 13.25 8.875V8H14.125C14.3711 8 14.5785 8.08431 14.7471 8.25293C14.9157 8.42155 15 8.62891 15 8.875V13.25C15 13.7331 14.8291 14.1455 14.4873 14.4873C14.1455 14.8291 13.7331 15 13.25 15ZM11.9375 7.125C12.056 7.125 12.1585 7.16829 12.2451 7.25488C12.3317 7.34147 12.375 7.44401 12.375 7.5625V8.4375C12.375 8.55599 12.3317 8.65853 12.2451 8.74512C12.1585 8.83171 12.056 8.875 11.9375 8.875H11.0625C10.944 8.875 10.8415 8.83171 10.7549 8.74512C10.6683 8.65853 10.625 8.55599 10.625 8.4375V7.5625C10.625 7.44401 10.6683 7.34147 10.7549 7.25488C10.8415 7.16829 10.944 7.125 11.0625 7.125H11.9375ZM4.9375 7.125C5.05599 7.125 5.15853 7.16829 5.24512 7.25488C5.33171 7.34147 5.375 7.44401 5.375 7.5625V8.4375C5.375 8.55599 5.33171 8.65853 5.24512 8.74512C5.15853 8.83171 5.05599 8.875 4.9375 8.875H4.0625C3.94401 8.875 3.84147 8.83171 3.75488 8.74512C3.66829 8.65853 3.625 8.55599 3.625 8.4375V7.5625C3.625 7.44401 3.66829 7.34147 3.75488 7.25488C3.84147 7.16829 3.94401 7.125 4.0625 7.125H4.9375ZM14.125 7.125H13.25C13.25 6.87891 13.1657 6.67155 12.9971 6.50293C12.8285 6.33431 12.6211 6.25 12.375 6.25H10.625C10.3789 6.25 10.1715 6.33431 10.0029 6.50293C9.83431 6.67155 9.75 6.87891 9.75 7.125H6.25C6.25 6.87891 6.16341 6.67155 5.99023 6.50293C5.81706 6.33431 5.61198 6.25 5.375 6.25H3.625C3.37891 6.25 3.17155 6.33431 3.00293 6.50293C2.83431 6.67155 2.75 6.87891 2.75 7.125H1.875C1.62891 7.125 1.42155 7.03841 1.25293 6.86523C1.08431 6.69206 1 6.48698 1 6.25C1 6.1862 1.00456 6.12695 1.01367 6.07227C1.05924 5.62565 1.24837 5.25195 1.58105 4.95117C1.91374 4.65039 2.30339 4.5 2.75 4.5H4.5V3.625C4.5 2.89583 4.75521 2.27604 5.26562 1.76562C5.77604 1.25521 6.39583 1 7.125 1H8.875C9.60417 1 10.224 1.25521 10.7344 1.76562C11.2448 2.27604 11.5 2.89583 11.5 3.625V4.5H13.25C13.6966 4.5 14.0863 4.65039 14.4189 4.95117C14.7516 5.25195 14.9408 5.62565 14.9863 6.07227C14.9954 6.12695 15 6.1862 15 6.25C15 6.48698 14.9157 6.69206 14.7471 6.86523C14.5785 7.03841 14.3711 7.125 14.125 7.125ZM9.75 3.625C9.75 3.37891 9.66341 3.17155 9.49023 3.00293C9.31706 2.83431 9.11198 2.75 8.875 2.75H7.125C6.87891 2.75 6.67155 2.83431 6.50293 3.00293C6.33431 3.17155 6.25 3.37891 6.25 3.625V4.5H9.75V3.625Z" fill="#00AECC"/>
</svg>
