<svg width="16" height="16" viewBox="0 0 16 16" fill="none" xmlns="http://www.w3.org/2000/svg">
<path fill-rule="evenodd" clip-rule="evenodd" d="M8 15C11.8661 15 15 11.8661 15 8C15 4.1339 11.8661 1 8 1C4.1339 1 1 4.1339 1 8C1 9.12 1.2632 10.1784 1.7301 11.1171C1.8547 11.3663 1.896 11.6512 1.8239 11.9207L1.4074 13.4789C1.36615 13.6331 1.36619 13.7954 1.40751 13.9496C1.44883 14.1038 1.52998 14.2444 1.64282 14.3573C1.75566 14.4702 1.89621 14.5515 2.05037 14.5929C2.20453 14.6343 2.36687 14.6344 2.5211 14.5933L4.0793 14.1761C4.34977 14.1078 4.6359 14.1409 4.8836 14.2692C5.85167 14.7512 6.91858 15.0014 8 15ZM5.2 8.875C5.06076 8.875 4.92723 8.93031 4.82877 9.02877C4.73031 9.12722 4.675 9.26076 4.675 9.4C4.675 9.53924 4.73031 9.67277 4.82877 9.77123C4.92723 9.86968 5.06076 9.925 5.2 9.925H9.05C9.18924 9.925 9.32277 9.86968 9.42123 9.77123C9.51969 9.67277 9.575 9.53924 9.575 9.4C9.575 9.26076 9.51969 9.12722 9.42123 9.02877C9.32277 8.93031 9.18924 8.875 9.05 8.875H5.2ZM4.675 6.95C4.675 6.81076 4.73031 6.67722 4.82877 6.57877C4.92723 6.48031 5.06076 6.425 5.2 6.425H10.8C10.9392 6.425 11.0728 6.48031 11.1712 6.57877C11.2697 6.67722 11.325 6.81076 11.325 6.95C11.325 7.08924 11.2697 7.22277 11.1712 7.32123C11.0728 7.41968 10.9392 7.475 10.8 7.475H5.2C5.06076 7.475 4.92723 7.41968 4.82877 7.32123C4.73031 7.22277 4.675 7.08924 4.675 6.95Z" fill="#00AECC"/>
</svg>
