<svg width="15" height="15" viewBox="0 0 15 15" fill="none" xmlns="http://www.w3.org/2000/svg">
<path fill-rule="evenodd" clip-rule="evenodd" d="M10.0893 2.88303C10.0896 3.39831 9.95172 3.90424 9.69009 4.34815C10.2021 4.42512 10.6694 4.68327 11.0072 5.07566C11.345 5.46806 11.5307 5.96863 11.5307 6.48638V6.63772L12.7652 5.87669C12.9289 5.77578 13.1166 5.72038 13.3089 5.71621C13.5012 5.71203 13.6911 5.75924 13.859 5.85295C14.027 5.94666 14.1669 6.08348 14.2643 6.2493C14.3618 6.41512 14.4132 6.60394 14.4133 6.79627V10.4991C14.4133 10.6915 14.362 10.8804 14.2646 11.0463C14.1672 11.2122 14.0273 11.3491 13.8593 11.4429C13.6914 11.5367 13.5014 11.584 13.3091 11.5798C13.1167 11.5757 12.929 11.5203 12.7652 11.4194L11.5307 10.6591V10.8104C11.5307 11.3838 11.3029 11.9337 10.8974 12.3392C10.492 12.7446 9.94207 12.9724 9.36867 12.9724H2.162C1.5886 12.9724 1.03869 12.7446 0.633235 12.3392C0.227782 11.9337 2.51509e-08 11.3838 2.51509e-08 10.8104V6.48638C-5.88261e-05 6.10049 0.103164 5.72162 0.298955 5.38909C0.494745 5.05656 0.775967 4.7825 1.11343 4.59534C0.793346 4.09151 0.662316 3.49048 0.743637 2.89913C0.824958 2.30779 1.11336 1.76444 1.55756 1.36571C2.00177 0.966984 2.57298 0.73871 3.16965 0.72148C3.76631 0.70425 4.34974 0.899181 4.81622 1.27161C5.16131 0.759564 5.66171 0.37186 6.24372 0.165591C6.82573 -0.0406774 7.4586 -0.054608 8.04912 0.125851C8.63965 0.30631 9.15662 0.67162 9.52391 1.16799C9.89121 1.66436 10.0894 2.26555 10.0893 2.88303ZM7.20667 1.44169C6.8244 1.44169 6.45779 1.59355 6.18749 1.86385C5.91719 2.13415 5.76533 2.50076 5.76533 2.88303C5.76533 3.2653 5.91719 3.63191 6.18749 3.90221C6.45779 4.17251 6.8244 4.32437 7.20667 4.32437C7.58893 4.32437 7.95554 4.17251 8.22584 3.90221C8.49615 3.63191 8.648 3.2653 8.648 2.88303C8.648 2.50076 8.49615 2.13415 8.22584 1.86385C7.95554 1.59355 7.58893 1.44169 7.20667 1.44169ZM3.243 4.32437C3.5297 4.32437 3.80466 4.21048 4.00738 4.00775C4.21011 3.80502 4.324 3.53006 4.324 3.24336C4.324 2.95666 4.21011 2.68171 4.00738 2.47898C3.80466 2.27625 3.5297 2.16236 3.243 2.16236C2.9563 2.16236 2.68134 2.27625 2.47862 2.47898C2.27589 2.68171 2.162 2.95666 2.162 3.24336C2.162 3.53006 2.27589 3.80502 2.47862 4.00775C2.68134 4.21048 2.9563 4.32437 3.243 4.32437Z" fill="#00AECC"/>
</svg>
