<svg width="16" height="15" viewBox="0 0 16 15" fill="none" xmlns="http://www.w3.org/2000/svg">
<path d="M12.2 1C12.9426 1 13.6548 1.28835 14.1799 1.80162C14.705 2.31489 15 3.01103 15 3.73691V9.21072C15 9.93659 14.705 10.6327 14.1799 11.146C13.6548 11.6593 12.9426 11.9476 12.2 11.9476H8.8932L5.5598 13.9025C5.45941 13.9613 5.34552 13.9947 5.22854 13.9994C5.11156 14.0041 4.99524 13.9801 4.89022 13.9295C4.7852 13.879 4.69483 13.8034 4.6274 13.7099C4.55996 13.6164 4.5176 13.5078 4.5042 13.3941L4.5 13.3161V11.9476H3.8C3.08163 11.9476 2.39074 11.6777 1.87023 11.1938C1.34972 10.7099 1.03942 10.0489 1.0035 9.34757L1 9.21072V3.73691C1 3.01103 1.295 2.31489 1.8201 1.80162C2.3452 1.28835 3.05739 1 3.8 1H12.2ZM10.24 7.35373C10.1074 7.22672 9.92869 7.15638 9.74307 7.15817C9.55745 7.15997 9.38017 7.23376 9.2502 7.36331C9.08725 7.52592 8.89274 7.65511 8.67807 7.7433C8.46339 7.8315 8.23287 7.87693 8 7.87693C7.76713 7.87693 7.53661 7.8315 7.32193 7.7433C7.10726 7.65511 6.91275 7.52592 6.7498 7.36331C6.61918 7.23675 6.44285 7.16552 6.25893 7.16502C6.07501 7.16453 5.89828 7.2348 5.76695 7.36066C5.63562 7.48651 5.56024 7.65784 5.5571 7.83758C5.55397 8.01733 5.62333 8.19107 5.7502 8.32123C6.04348 8.61376 6.39353 8.84616 6.77985 9.00481C7.16616 9.16346 7.58097 9.24518 8 9.24518C8.41903 9.24518 8.83384 9.16346 9.22015 9.00481C9.60647 8.84616 9.95652 8.61376 10.2498 8.32123C10.3797 8.19165 10.4517 8.01693 10.4499 7.83549C10.448 7.65406 10.3725 7.48077 10.24 7.35373ZM6.257 4.42113H6.25C6.06435 4.42113 5.8863 4.49322 5.75503 4.62154C5.62375 4.74986 5.55 4.92389 5.55 5.10536C5.55 5.28683 5.62375 5.46086 5.75503 5.58918C5.8863 5.7175 6.06435 5.78959 6.25 5.78959H6.257C6.44265 5.78959 6.6207 5.7175 6.75197 5.58918C6.88325 5.46086 6.957 5.28683 6.957 5.10536C6.957 4.92389 6.88325 4.74986 6.75197 4.62154C6.6207 4.49322 6.44265 4.42113 6.257 4.42113ZM9.757 4.42113H9.75C9.56435 4.42113 9.3863 4.49322 9.25502 4.62154C9.12375 4.74986 9.05 4.92389 9.05 5.10536C9.05 5.28683 9.12375 5.46086 9.25502 5.58918C9.3863 5.7175 9.56435 5.78959 9.75 5.78959H9.757C9.94265 5.78959 10.1207 5.7175 10.252 5.58918C10.3833 5.46086 10.457 5.28683 10.457 5.10536C10.457 4.92389 10.3833 4.74986 10.252 4.62154C10.1207 4.49322 9.94265 4.42113 9.757 4.42113Z" fill="#00AECC"/>
</svg>
