<svg width="16" height="16" viewBox="0 0 16 16" fill="none" xmlns="http://www.w3.org/2000/svg">
<path d="M7.965 12.2C8.21 12.2 8.4172 12.1153 8.5866 11.9459C8.756 11.7765 8.84046 11.5695 8.83999 11.325C8.83953 11.0805 8.75506 10.8733 8.5866 10.7034C8.41813 10.5335 8.21093 10.4491 7.965 10.45C7.71906 10.4509 7.5121 10.5356 7.3441 10.7041C7.1761 10.8726 7.0914 11.0795 7.09 11.325C7.0886 11.5705 7.1733 11.7777 7.3441 11.9466C7.5149 12.1155 7.72186 12.2 7.965 12.2ZM7.335 9.50499H8.62999C8.62999 9.11999 8.67386 8.81666 8.7616 8.59499C8.84933 8.37333 9.09713 8.06999 9.50499 7.685C9.80833 7.38166 10.0475 7.0928 10.2225 6.8184C10.3975 6.544 10.485 6.21453 10.485 5.83C10.485 5.17666 10.2458 4.675 9.76749 4.325C9.28916 3.975 8.72333 3.8 8.07 3.8C7.405 3.8 6.86553 3.975 6.4516 4.325C6.03766 4.675 5.7488 5.095 5.585 5.585L6.74 6.04C6.79833 5.83 6.9297 5.6025 7.1341 5.3575C7.3385 5.1125 7.65046 4.99 8.07 4.99C8.44333 4.99 8.72333 5.0922 8.91 5.2966C9.09666 5.501 9.18999 5.72546 9.18999 5.97C9.18999 6.20333 9.12 6.4222 8.97999 6.6266C8.83999 6.831 8.665 7.02046 8.455 7.195C7.94166 7.65 7.62666 7.99416 7.51 8.22749C7.39333 8.46083 7.335 8.88666 7.335 9.50499ZM8 15C7.03166 15 6.12166 14.8164 5.27 14.4491C4.41833 14.0818 3.6775 13.583 3.0475 12.9525C2.4175 12.322 1.91887 11.5812 1.5516 10.73C1.18433 9.87879 1.00047 8.96879 1 7.99999C0.999534 7.0312 1.1834 6.1212 1.5516 5.27C1.9198 4.4188 2.41843 3.67797 3.0475 3.0475C3.67657 2.41704 4.4174 1.9184 5.27 1.5516C6.1226 1.1848 7.0326 1.00094 8 1C8.9674 0.99907 9.87739 1.18294 10.73 1.5516C11.5826 1.92027 12.3234 2.4189 12.9525 3.0475C13.5816 3.6761 14.0804 4.41693 14.4491 5.27C14.8178 6.12306 15.0014 7.03306 15 7.99999C14.9986 8.96693 14.8147 9.87693 14.4484 10.73C14.0821 11.5831 13.5834 12.3239 12.9525 12.9525C12.3216 13.5811 11.5807 14.08 10.73 14.4491C9.87926 14.8182 8.96926 15.0019 8 15Z" fill="#00AECC"/>
</svg>
