<svg width="35" height="32" viewBox="0 0 35 32" fill="none" xmlns="http://www.w3.org/2000/svg">
<path d="M31.4949 14.6088C30.5681 14.6049 29.6805 14.2382 29.0258 13.5887C28.3712 12.9391 28.0027 12.0595 28.0007 11.1419V3.46686C28.0007 2.54739 27.6318 1.66558 26.9752 1.01542C26.3185 0.365257 25.4279 0 24.4993 0C23.5706 0 22.68 0.365257 22.0234 1.01542C21.3667 1.66558 20.9978 2.54739 20.9978 3.46686V11.2364C20.9566 12.1275 20.57 12.9685 19.9186 13.5846C19.2671 14.2008 18.4009 14.5446 17.5 14.5446C16.5991 14.5446 15.7329 14.2008 15.0814 13.5846C14.43 12.9685 14.0434 12.1275 14.0022 11.2364V7.39887C14.0022 6.4794 13.6333 5.59759 12.9766 4.94743C12.32 4.29727 11.4294 3.93201 10.5007 3.93201C9.57209 3.93201 8.68148 4.29727 8.02482 4.94743C7.36817 5.59759 6.99927 6.4794 6.99927 7.39887V11.1419C6.99734 12.0595 6.62882 12.9391 5.97417 13.5887C5.31952 14.2382 4.43192 14.6049 3.50514 14.6088C2.57709 14.6107 1.6876 14.9766 1.03137 15.6263C0.375136 16.2761 0.00560999 17.1568 0.00367048 18.0756V21.8187C-0.0179954 22.2868 0.0564241 22.7544 0.222432 23.1933C0.38844 23.6322 0.642589 24.0332 0.969523 24.372C1.29646 24.7109 1.68939 24.9806 2.12457 25.1649C2.55975 25.3492 3.02815 25.4442 3.50147 25.4442C3.97478 25.4442 4.44318 25.3492 4.87837 25.1649C5.31355 24.9806 5.70648 24.7109 6.03341 24.372C6.36035 24.0332 6.6145 23.6322 6.78051 23.1933C6.94651 22.7544 7.02093 22.2868 6.99927 21.8187V18.0756C6.99927 17.1562 7.36817 16.2744 8.02482 15.6242C8.68148 14.974 9.57209 14.6088 10.5007 14.6088C11.4294 14.6088 12.32 14.974 12.9766 15.6242C13.6333 16.2744 14.0022 17.1562 14.0022 18.0756V28.3744C13.9805 28.8426 14.055 29.3102 14.221 29.7491C14.387 30.188 14.6411 30.5889 14.9681 30.9278C15.295 31.2667 15.6879 31.5364 16.1231 31.7207C16.5583 31.905 17.0267 32 17.5 32C17.9733 32 18.4417 31.905 18.8769 31.7207C19.3121 31.5364 19.705 31.2667 20.0319 30.9278C20.3589 30.5889 20.613 30.188 20.779 29.7491C20.945 29.3102 21.0195 28.8426 20.9978 28.3744V18.0756C20.9978 17.1562 21.3667 16.2744 22.0234 15.6242C22.68 14.974 23.5706 14.6088 24.4993 14.6088C25.4279 14.6088 26.3185 14.974 26.9752 15.6242C27.6318 16.2744 28.0007 17.1562 28.0007 18.0756V22.5673C27.9791 23.0354 28.0535 23.5031 28.2195 23.9419C28.3855 24.3808 28.6397 24.7818 28.9666 25.1207C29.2935 25.4595 29.6865 25.7293 30.1216 25.9135C30.5568 26.0978 31.0252 26.1928 31.4985 26.1928C31.9718 26.1928 32.4402 26.0978 32.8754 25.9135C33.3106 25.7293 33.7035 25.4595 34.0305 25.1207C34.3574 24.7818 34.6116 24.3808 34.7776 23.9419C34.9436 23.5031 35.018 23.0354 34.9963 22.5673V18.0756C34.9944 17.1568 34.6249 16.2761 33.9686 15.6263C33.3124 14.9766 32.4229 14.6107 31.4949 14.6088Z" fill="#00AECC"/>
</svg>
