<svg width="24" height="24" viewBox="0 0 24 24" fill="none" xmlns="http://www.w3.org/2000/svg">
<path d="M15 4C16.1046 4 17 4.89543 17 6V11H18C19.1046 11 20 11.8954 20 13V18C20 19.1046 19.1046 20 18 20H6C4.89543 20 4 19.1046 4 18V13C4 11.8954 4.89543 11 6 11H7V6C7 4.89543 7.89543 4 9 4H15ZM6 12C5.44772 12 5 12.4477 5 13V18C5 18.5523 5.44772 19 6 19H18C18.5523 19 19 18.5523 19 18V13C19 12.4477 18.5523 12 18 12H6ZM9 5C8.44772 5 8 5.44772 8 6V11H16V6C16 5.44772 15.5523 5 15 5H9ZM11 6.5C11.2761 6.5 11.5 6.72386 11.5 7V8C11.5 8.27614 11.2761 8.5 11 8.5C10.7239 8.5 10.5 8.27614 10.5 8V7C10.5 6.72386 10.7239 6.5 11 6.5ZM13 6.5C13.2761 6.5 13.5 6.72386 13.5 7V8C13.5 8.27614 13.2761 8.5 13 8.5C12.7239 8.5 12.5 8.27614 12.5 8V7C12.5 6.72386 12.7239 6.5 13 6.5Z" fill="#999999"/>
</svg>
