<svg width="16" height="16" viewBox="0 0 16 16" fill="none" xmlns="http://www.w3.org/2000/svg">
<path fill-rule="evenodd" clip-rule="evenodd" d="M11.0893 3.88303C11.0896 4.39831 10.9517 4.90424 10.6901 5.34815C11.2021 5.42512 11.6694 5.68327 12.0072 6.07566C12.345 6.46806 12.5307 6.96863 12.5307 7.48638V7.63772L13.7652 6.87669C13.9289 6.77578 14.1166 6.72038 14.3089 6.71621C14.5012 6.71203 14.6911 6.75924 14.859 6.85295C15.027 6.94666 15.1669 7.08348 15.2643 7.2493C15.3618 7.41512 15.4132 7.60394 15.4133 7.79627V11.4991C15.4133 11.6915 15.362 11.8804 15.2646 12.0463C15.1672 12.2122 15.0273 12.3491 14.8593 12.4429C14.6914 12.5367 14.5014 12.584 14.3091 12.5798C14.1167 12.5757 13.929 12.5203 13.7652 12.4194L12.5307 11.6591V11.8104C12.5307 12.3838 12.3029 12.9337 11.8974 13.3392C11.492 13.7446 10.9421 13.9724 10.3687 13.9724H3.162C2.5886 13.9724 2.03869 13.7446 1.63324 13.3392C1.22778 12.9337 1 12.3838 1 11.8104V7.48638C0.999941 7.10049 1.10316 6.72162 1.29895 6.38909C1.49475 6.05656 1.77597 5.7825 2.11343 5.59534C1.79335 5.09151 1.66232 4.49048 1.74364 3.89913C1.82496 3.30779 2.11336 2.76444 2.55756 2.36571C3.00177 1.96698 3.57298 1.73871 4.16965 1.72148C4.76631 1.70425 5.34974 1.89918 5.81622 2.27161C6.16131 1.75956 6.66171 1.37186 7.24372 1.16559C7.82573 0.959323 8.4586 0.945392 9.04912 1.12585C9.63965 1.30631 10.1566 1.67162 10.5239 2.16799C10.8912 2.66436 11.0894 3.26555 11.0893 3.88303ZM8.20667 2.44169C7.8244 2.44169 7.45779 2.59355 7.18749 2.86385C6.91719 3.13415 6.76533 3.50076 6.76533 3.88303C6.76533 4.2653 6.91719 4.63191 7.18749 4.90221C7.45779 5.17251 7.8244 5.32437 8.20667 5.32437C8.58893 5.32437 8.95554 5.17251 9.22584 4.90221C9.49615 4.63191 9.648 4.2653 9.648 3.88303C9.648 3.50076 9.49615 3.13415 9.22584 2.86385C8.95554 2.59355 8.58893 2.44169 8.20667 2.44169ZM4.243 5.32437C4.5297 5.32437 4.80466 5.21048 5.00738 5.00775C5.21011 4.80502 5.324 4.53006 5.324 4.24336C5.324 3.95666 5.21011 3.68171 5.00738 3.47898C4.80466 3.27625 4.5297 3.16236 4.243 3.16236C3.9563 3.16236 3.68134 3.27625 3.47862 3.47898C3.27589 3.68171 3.162 3.95666 3.162 4.24336C3.162 4.53006 3.27589 4.80502 3.47862 5.00775C3.68134 5.21048 3.9563 5.32437 4.243 5.32437Z" fill="#BBBDBF"/>
</svg>
