<svg width="24" height="24" viewBox="0 0 24 24" fill="none" xmlns="http://www.w3.org/2000/svg">
<path d="M9.2998 3.5C9.46596 3.5 9.62188 3.58298 9.71484 3.7207L11.3662 6.16699H19.2002C19.8081 6.16704 20.3925 6.40561 20.8242 6.83203C21.256 7.25866 21.5 7.83837 21.5 8.44434V18.2227C21.4999 18.8286 21.2561 19.4084 20.8242 19.835C20.3925 20.2614 19.8081 20.4999 19.2002 20.5H4.7998C4.19187 20.4999 3.60753 20.2614 3.17578 19.835C2.74393 19.4084 2.50012 18.8286 2.5 18.2227V5.77734C2.50012 5.17142 2.74393 4.5916 3.17578 4.16504C3.60753 3.73862 4.19187 3.50005 4.7998 3.5H9.2998ZM4.7998 4.5C4.4533 4.50005 4.12216 4.63594 3.87891 4.87598C3.63589 5.11599 3.50012 5.44063 3.5 5.77734V18.2227C3.50012 18.5594 3.63589 18.884 3.87891 19.124C4.12216 19.3641 4.4533 19.4999 4.7998 19.5H19.2002C19.5467 19.4999 19.8778 19.3641 20.1211 19.124C20.3641 18.884 20.4999 18.5594 20.5 18.2227V8.44434C20.5 8.10751 20.3642 7.78306 20.1211 7.54297C19.8778 7.30284 19.5468 7.16704 19.2002 7.16699H11.0996C10.9336 7.16686 10.7784 7.0839 10.6855 6.94629L9.03516 4.5H4.7998ZM15 13.5C15.2761 13.5 15.5 13.7239 15.5 14C15.5 14.2761 15.2761 14.5 15 14.5H9C8.72386 14.5 8.5 14.2761 8.5 14C8.5 13.7239 8.72386 13.5 9 13.5H15Z" fill="#333333"/>
</svg>
