<svg width="40" height="40" viewBox="0 0 40 40" fill="none" xmlns="http://www.w3.org/2000/svg">
<path d="M0 8C0 3.58172 3.58172 0 8 0H32C36.4183 0 40 3.58172 40 8V32C40 36.4183 36.4183 40 32 40H8C3.58172 40 0 36.4183 0 32V8Z" fill="white"/>
<path d="M28.7929 18.6155C28.7735 18.5272 28.7352 18.444 28.6807 18.3715C28.6262 18.299 28.5567 18.2388 28.4767 18.1949L26.5668 17.147C26.4611 16.9445 26.3456 16.7464 26.2214 16.5547L26.2582 14.3941C26.2597 14.3038 26.2417 14.2141 26.2054 14.1312C26.1691 14.0482 26.1153 13.9739 26.0476 13.9132C25.0966 13.0584 23.9702 12.4166 22.7452 12.0317C22.6581 12.0042 22.5661 11.9953 22.4753 12.0057C22.3845 12.0161 22.297 12.0455 22.2186 12.092L20.3454 13.2029C20.115 13.192 19.8835 13.1918 19.6536 13.2023L17.7789 12.0905C17.7005 12.044 17.6129 12.0146 17.5221 12.0042C17.4312 11.9938 17.3392 12.0027 17.2521 12.0303C16.0276 12.4168 14.902 13.0601 13.9523 13.9162C13.8846 13.9769 13.8308 14.0512 13.7946 14.1342C13.7583 14.2171 13.7403 14.3067 13.7418 14.397L13.7786 16.5558C13.654 16.7475 13.5381 16.9455 13.4322 17.1476L11.5207 18.1964C11.4407 18.2403 11.3712 18.3005 11.3166 18.3731C11.2621 18.4456 11.2239 18.5288 11.2045 18.6172C10.931 19.8585 10.9318 21.1436 11.2071 22.3845C11.2265 22.4728 11.2648 22.556 11.3193 22.6285C11.3738 22.701 11.4433 22.7612 11.5233 22.8051L13.4332 23.853C13.5389 24.0555 13.6544 24.2536 13.7786 24.4453L13.7418 26.6059C13.7403 26.6962 13.7583 26.7859 13.7946 26.8688C13.8309 26.9518 13.8847 27.0261 13.9524 27.0868C14.9034 27.9416 16.0298 28.5834 17.2548 28.9683C17.3419 28.9958 17.4339 29.0047 17.5247 28.9943C17.6155 28.9839 17.703 28.9545 17.7814 28.908L19.6546 27.7971C19.885 27.8079 20.1164 27.8081 20.3464 27.7977L22.2211 28.9095C22.2995 28.956 22.3871 28.9854 22.4779 28.9958C22.5688 29.0062 22.6608 28.9973 22.7479 28.9697C23.9724 28.5832 25.098 27.9399 26.0477 27.0838C26.1154 27.0231 26.1692 26.9487 26.2054 26.8658C26.2417 26.7829 26.2597 26.6933 26.2582 26.603L26.2214 24.4442C26.346 24.2525 26.4619 24.0545 26.5678 23.8524L28.4793 22.8036C28.5593 22.7597 28.6288 22.6995 28.6834 22.6269C28.7379 22.5544 28.7761 22.4712 28.7955 22.3828C29.069 21.1415 29.0682 19.8564 28.7929 18.6155V18.6155ZM23.5346 20.5C23.5346 21.1909 23.3273 21.8663 22.9389 22.4408C22.5505 23.0153 21.9985 23.4631 21.3526 23.7275C20.7068 23.9919 19.9961 24.0611 19.3104 23.9263C18.6248 23.7915 17.995 23.4588 17.5007 22.9702C17.0063 22.4816 16.6697 21.8592 16.5333 21.1815C16.3969 20.5039 16.4669 19.8015 16.7345 19.1631C17.002 18.5248 17.455 17.9792 18.0363 17.5954C18.6175 17.2115 19.3009 17.0066 20 17.0066C20.9371 17.0077 21.8355 17.3761 22.4982 18.031C23.1608 18.6859 23.5336 19.5738 23.5346 20.5V20.5Z" stroke="#333333"/>
</svg>
