<svg width="24" height="24" viewBox="0 0 24 24" fill="none" xmlns="http://www.w3.org/2000/svg">
<path d="M12 5.75C13.46 5.75 14.6846 6.26803 15.7021 7.31738C16.7202 8.36734 17.228 9.63721 17.2275 11.1562V11.5996L17.668 11.6523C18.4835 11.7499 19.1506 12.1073 19.6904 12.7373C20.2319 13.3694 20.5005 14.1008 20.5 14.9531C20.5 15.8816 20.1901 16.6523 19.5674 17.2949C18.9455 17.9368 18.2054 18.2505 17.3184 18.25H7.5C6.39339 18.25 5.46076 17.8611 4.6748 17.0693C3.89111 16.2797 3.50058 15.3242 3.5 14.1729L3.51367 13.8066C3.57646 12.9647 3.8594 12.2131 4.3623 11.54C4.93293 10.7763 5.66963 10.2943 6.58984 10.082L6.88379 10.0146L6.96094 9.72266C7.27496 8.53101 7.89686 7.57788 8.83105 6.8457C9.76606 6.1129 10.8167 5.75 12 5.75Z" stroke="#333333"/>
</svg>
