<svg width="16" height="16" viewBox="0 0 16 16" fill="none" xmlns="http://www.w3.org/2000/svg">
<path fill-rule="evenodd" clip-rule="evenodd" d="M11.6133 2C11.8298 1.99998 12.043 2.05265 12.2345 2.15347C12.426 2.25429 12.5901 2.40023 12.7126 2.57867L12.7706 2.672L14.9933 6.56C15.129 6.79731 15.1885 7.0706 15.1637 7.34284C15.1389 7.61508 15.031 7.87312 14.8546 8.082L14.7786 8.164L8.58998 14.3527C8.44482 14.4978 8.2512 14.5842 8.04625 14.5954C7.84129 14.6066 7.63941 14.5418 7.47931 14.4133L7.41131 14.3533L1.22264 8.164C1.02933 7.97077 0.900067 7.7228 0.852369 7.45366C0.804671 7.18452 0.840839 6.90723 0.955976 6.65933L1.00798 6.55933L3.22998 2.67133C3.33737 2.48338 3.48891 2.32441 3.6715 2.20814C3.85409 2.09187 4.06224 2.02181 4.27798 2.004L4.38664 2H11.6133ZM4.86198 6.19533C4.737 6.32035 4.66679 6.48989 4.66679 6.66667C4.66679 6.84344 4.737 7.01298 4.86198 7.138L7.41064 9.68667C7.48803 9.76407 7.5799 9.82548 7.68102 9.86737C7.78214 9.90926 7.89052 9.93082 7.99998 9.93082C8.10943 9.93082 8.21781 9.90926 8.31893 9.86737C8.42005 9.82548 8.51192 9.76407 8.58931 9.68667L11.138 7.138C11.2016 7.0765 11.2524 7.00294 11.2874 6.9216C11.3223 6.84027 11.3407 6.75279 11.3415 6.66427C11.3422 6.57575 11.3254 6.48796 11.2919 6.40603C11.2583 6.3241 11.2088 6.24967 11.1462 6.18707C11.0836 6.12448 11.0092 6.07497 10.9273 6.04145C10.8453 6.00793 10.7576 5.99106 10.669 5.99183C10.5805 5.9926 10.493 6.01099 10.4117 6.04593C10.3304 6.08087 10.2568 6.13166 10.1953 6.19533L7.99998 8.39067L5.80464 6.19533C5.67962 6.07035 5.51009 6.00014 5.33331 6.00014C5.15653 6.00014 4.98699 6.07035 4.86198 6.19533Z" fill="url(#paint0_linear_437_14829)"/>
<defs>
<linearGradient id="paint0_linear_437_14829" x1="14.2989" y1="2" x2="1.70221" y2="14.5967" gradientUnits="userSpaceOnUse">
<stop stop-color="#FFEABB"/>
<stop offset="1" stop-color="#EFC15D"/>
</linearGradient>
</defs>
</svg>
