<svg width="24" height="24" viewBox="0 0 24 24" fill="none" xmlns="http://www.w3.org/2000/svg">
<path d="M14.8571 6H9.14286C8.51167 6 8 6.53726 8 7.2V16.8C8 17.4627 8.51167 18 9.14286 18H14.8571C15.4883 18 16 17.4627 16 16.8V7.2C16 6.53726 15.4883 6 14.8571 6Z" stroke="#333333" stroke-linecap="round" stroke-linejoin="round"/>
<path d="M12 15H12.01" stroke="#333333" stroke-linecap="round" stroke-linejoin="round"/>
<path d="M5 15C4.35384 14.1577 4 13.0962 4 12C4 10.9038 4.35384 9.84229 5 9" stroke="#333333" stroke-linecap="round" stroke-linejoin="round"/>
<path d="M19 15C19.6462 14.1577 20 13.0962 20 12C20 10.9038 19.6462 9.84229 19 9" stroke="#333333" stroke-linecap="round" stroke-linejoin="round"/>
<path d="M3 17C1.71113 15.6189 1 13.8411 1 12C1 10.1589 1.71113 8.38111 3 7" stroke="#333333" stroke-linecap="round" stroke-linejoin="round"/>
<path d="M21 17C22.2889 15.6189 23 13.8411 23 12C23 10.1589 22.2889 8.38111 21 7" stroke="#333333" stroke-linecap="round" stroke-linejoin="round"/>
</svg>
