<svg width="24" height="24" viewBox="0 0 24 24" fill="none" xmlns="http://www.w3.org/2000/svg">
<path d="M14.8574 5.5C15.7873 5.50016 16.5 6.28467 16.5 7.2002V16.7998C16.5 17.7153 15.7873 18.4998 14.8574 18.5H9.14258C8.21268 18.4998 7.5 17.7153 7.5 16.7998V7.2002C7.5 6.28467 8.21268 5.50016 9.14258 5.5H14.8574ZM9.14258 6.5C8.81035 6.50016 8.5 6.79044 8.5 7.2002V16.7998C8.5 17.2096 8.81035 17.4998 9.14258 17.5H14.8574C15.1896 17.4998 15.5 17.2096 15.5 16.7998V7.2002C15.5 6.79044 15.1896 6.50016 14.8574 6.5H9.14258ZM2.71094 6.5918C2.90044 6.45731 3.16428 6.47003 3.34082 6.63477C3.51753 6.79968 3.54827 7.06233 3.42676 7.26074L3.36523 7.34082L3.14648 7.58789C2.08107 8.84009 1.5 10.3961 1.5 12C1.5 13.7108 2.16027 15.368 3.36523 16.6592C3.55363 16.8611 3.5427 17.1768 3.34082 17.3652C3.13893 17.5536 2.82317 17.5427 2.63477 17.3408C1.262 15.8698 0.5 13.9713 0.5 12C0.5 10.152 1.16905 8.36734 2.38379 6.93945L2.63477 6.65918L2.71094 6.5918ZM20.6592 6.63477C20.8357 6.47003 21.0996 6.45731 21.2891 6.5918L21.3652 6.65918L21.6162 6.93945C22.8309 8.36734 23.5 10.152 23.5 12C23.5 13.9713 22.738 15.8698 21.3652 17.3408C21.1768 17.5427 20.8611 17.5536 20.6592 17.3652C20.4573 17.1768 20.4464 16.8611 20.6348 16.6592C21.8397 15.368 22.5 13.7108 22.5 12C22.5 10.3961 21.9189 8.84009 20.8535 7.58789L20.6348 7.34082L20.5732 7.26074C20.4517 7.06233 20.4825 6.79968 20.6592 6.63477ZM12.0098 14.5C12.2859 14.5 12.5098 14.7239 12.5098 15C12.5098 15.2761 12.2859 15.5 12.0098 15.5H12C11.7239 15.5 11.5 15.2761 11.5 15C11.5 14.7239 11.7239 14.5 12 14.5H12.0098ZM4.67285 8.62207C4.84852 8.46968 5.11298 8.45645 5.30469 8.60352C5.5235 8.77166 5.56448 9.0857 5.39648 9.30469C4.81978 10.0566 4.5 11.0101 4.5 12C4.5 12.9899 4.81978 13.9434 5.39648 14.6953C5.56448 14.9143 5.5235 15.2283 5.30469 15.3965C5.0857 15.5645 4.77166 15.5235 4.60352 15.3047C3.88806 14.3721 3.5 13.2024 3.5 12C3.5 10.8728 3.84054 9.77437 4.47266 8.87305L4.60352 8.69531L4.67285 8.62207ZM18.6953 8.60352C18.887 8.45645 19.1515 8.46968 19.3271 8.62207L19.3965 8.69531L19.5273 8.87305C20.1595 9.77437 20.5 10.8728 20.5 12C20.5 13.2024 20.1119 14.3721 19.3965 15.3047C19.2283 15.5235 18.9143 15.5645 18.6953 15.3965C18.4765 15.2283 18.4355 14.9143 18.6035 14.6953C19.1802 13.9434 19.5 12.9899 19.5 12C19.5 11.0101 19.1802 10.0566 18.6035 9.30469C18.4355 9.0857 18.4765 8.77166 18.6953 8.60352Z" fill="#333333"/>
</svg>
