<svg width="24" height="24" viewBox="0 0 24 24" fill="none" xmlns="http://www.w3.org/2000/svg">
<path d="M11.8789 2C12.155 2 12.3789 2.22386 12.3789 2.5C12.3788 2.77607 12.155 3 11.8789 3C6.97541 3.00024 3.00004 6.97536 3 11.8789C3.00008 16.7824 6.97544 20.7576 11.8789 20.7578C16.7826 20.7578 20.7577 16.7826 20.7578 11.8789C20.7579 11.603 20.9819 11.3792 21.2578 11.3789C21.5339 11.3789 21.7578 11.6028 21.7578 11.8789C21.7577 17.3348 17.3349 21.7578 11.8789 21.7578C6.42315 21.7576 2.00008 17.3347 2 11.8789C2.00004 6.42308 6.42313 2.00024 11.8789 2ZM10.5049 8.12695C10.7809 8.12701 11.0048 8.35094 11.0049 8.62695V16.0684L10.9951 16.1689C10.9485 16.3967 10.7464 16.5683 10.5049 16.5684C10.2633 16.5684 10.0613 16.3968 10.0146 16.1689L10.0049 16.0684V8.62695C10.005 8.35091 10.2288 8.12695 10.5049 8.12695ZM16.1318 9.06445C16.4078 9.06457 16.6317 9.28847 16.6318 9.56445V15.1299L16.6221 15.2305C16.5755 15.4583 16.3734 15.6298 16.1318 15.6299C15.8902 15.6299 15.6882 15.4584 15.6416 15.2305L15.6318 15.1299V9.56445C15.6319 9.2884 15.8558 9.06445 16.1318 9.06445ZM7.69141 10.002C7.96729 10.0022 8.19131 10.226 8.19141 10.502V14.1914C8.19141 14.4674 7.96734 14.6912 7.69141 14.6914C7.41526 14.6914 7.19141 14.4675 7.19141 14.1914V10.502C7.1915 10.2259 7.41532 10.002 7.69141 10.002ZM13.3184 10.002C13.5943 10.0021 13.8183 10.226 13.8184 10.502V14.1914C13.8184 14.4675 13.5944 14.6913 13.3184 14.6914C13.0422 14.6914 12.8184 14.4675 12.8184 14.1914V10.502C12.8185 10.2259 13.0423 10.002 13.3184 10.002ZM18.916 6.11621C19.1169 6.11633 19.2978 6.23685 19.376 6.42188L19.8613 7.56934L21.0088 8.05371C21.1938 8.13197 21.3135 8.31379 21.3135 8.51465C21.3133 8.71527 21.1935 8.89637 21.0088 8.97461L19.8604 9.45898L19.376 10.6074C19.2977 10.7921 19.1166 10.912 18.916 10.9121C18.7152 10.9121 18.5334 10.7923 18.4551 10.6074L17.9707 9.45996L16.8232 8.97461C16.6383 8.89646 16.5178 8.71541 16.5176 8.51465C16.5176 8.31375 16.6382 8.13195 16.8232 8.05371L17.9697 7.56836L18.4551 6.42188C18.5333 6.23679 18.7151 6.11625 18.916 6.11621ZM18.8125 8.14551C18.7618 8.26511 18.6665 8.36051 18.5469 8.41113L18.3027 8.51367L18.5469 8.61719L18.6318 8.66309C18.7117 8.71692 18.7745 8.79383 18.8125 8.88379L18.915 9.12695L19.0186 8.88379L19.0645 8.79883C19.1183 8.71885 19.1951 8.65526 19.2852 8.61719L19.5283 8.51367L19.2852 8.41113C19.1653 8.36051 19.0692 8.2653 19.0186 8.14551L18.915 7.90137L18.8125 8.14551ZM15.1201 2.32031C15.3209 2.32051 15.5019 2.44101 15.5801 2.62598L16.252 4.2168L17.8447 4.89062C18.0297 4.96887 18.1504 5.15068 18.1504 5.35156C18.1501 5.55225 18.0296 5.73341 17.8447 5.81152L16.2529 6.48438L15.5801 8.07617C15.5019 8.26102 15.3208 8.38164 15.1201 8.38184C14.9193 8.38184 14.7374 8.26113 14.6592 8.07617L13.9854 6.4834L12.3945 5.81152C12.2096 5.73341 12.0891 5.55225 12.0889 5.35156C12.0889 5.15061 12.2094 4.96883 12.3945 4.89062L13.9863 4.21777L14.6592 2.62598L14.6934 2.55957C14.7832 2.41254 14.9443 2.32031 15.1201 2.32031ZM14.8291 4.79395C14.7784 4.91377 14.6824 5.00992 14.5625 5.06055L13.873 5.35059L14.5625 5.64258L14.6475 5.68848C14.7272 5.74231 14.7911 5.81831 14.8291 5.9082L15.1191 6.59668L15.4111 5.9082L15.457 5.82324C15.5108 5.74351 15.5869 5.68057 15.6768 5.64258L16.3652 5.35059L15.6768 5.06055C15.5569 5.00993 15.4618 4.91373 15.4111 4.79395L15.1191 4.10449L14.8291 4.79395Z" fill="#333333"/>
</svg>
