<svg width="24" height="24" viewBox="0 0 24 24" fill="none" xmlns="http://www.w3.org/2000/svg">
<path d="M12 12.7861V22.9453C11.7374 22.8917 11.484 22.7962 11.25 22.6611V22.6602L8.5 21.0889V15.0977C8.49987 14.9291 8.41445 14.772 8.27344 14.6797L3 11.2275V8.49707L3.00586 8.33301C3.02856 7.99413 3.11948 7.6629 3.27441 7.36035L12 12.7861ZM21.7236 7.36035C21.9038 7.71177 21.9995 8.101 22 8.49707V11.2275L16.7266 14.6797C16.5855 14.772 16.5001 14.9291 16.5 15.0977V21.0879L13.749 22.6602L13.75 22.6611C13.516 22.7962 13.2626 22.8917 13 22.9453V12.7852L21.7236 7.36035ZM7.5 15.3682V20.5176L4.25195 18.6621L4.25 18.6611C3.87042 18.442 3.55532 18.1265 3.33594 17.7471C3.11657 17.3675 3.00045 16.9364 3 16.498V12.4219L7.5 15.3682ZM22 16.498L21.9941 16.6621C21.9687 17.0435 21.8561 17.4149 21.6641 17.7471C21.4447 18.1265 21.1296 18.442 20.75 18.6611L20.748 18.6621L17.5 20.5166V15.3682L22 12.4219V16.498ZM20.748 6.33398L20.75 6.33496L20.8896 6.42188C20.9604 6.46919 21.0284 6.52013 21.0938 6.57422L12.499 11.918L3.90527 6.5752C4.01289 6.48597 4.12802 6.40539 4.25 6.33496L4.25195 6.33398L7.37402 4.5498L12.2266 7.72656C12.3927 7.8351 12.6073 7.83511 12.7734 7.72656L17.625 4.5498L20.748 6.33398ZM12.5 2C12.9381 2 13.3685 2.11529 13.748 2.33398L16.6514 3.99316L12.5 6.70996L8.34766 3.99316L11.252 2.33398C11.6315 2.11529 12.0619 2 12.5 2Z" fill="#333333"/>
</svg>
