<svg width="24" height="24" viewBox="0 0 24 24" fill="none" xmlns="http://www.w3.org/2000/svg">
<path d="M14.8574 5.5C15.7873 5.50016 16.5 6.28467 16.5 7.2002V16.7998C16.5 17.7153 15.7873 18.4998 14.8574 18.5H9.14258C8.21268 18.4998 7.5 17.7153 7.5 16.7998V7.2002C7.5 6.28467 8.21268 5.50016 9.14258 5.5H14.8574ZM12 14.5C11.7239 14.5 11.5 14.7239 11.5 15C11.5 15.2761 11.7239 15.5 12 15.5H12.0098C12.2859 15.5 12.5098 15.2761 12.5098 15C12.5098 14.7239 12.2859 14.5 12.0098 14.5H12Z" fill="#EAEAEA"/>
<path d="M5 15C4.35384 14.1577 4 13.0962 4 12C4 10.9038 4.35384 9.84229 5 9" stroke="#EAEAEA" stroke-linecap="round" stroke-linejoin="round"/>
<path d="M19 15C19.6462 14.1577 20 13.0962 20 12C20 10.9038 19.6462 9.84229 19 9" stroke="#EAEAEA" stroke-linecap="round" stroke-linejoin="round"/>
<path d="M3 17C1.71113 15.6189 1 13.8411 1 12C1 10.1589 1.71113 8.38111 3 7" stroke="#EAEAEA" stroke-linecap="round" stroke-linejoin="round"/>
<path d="M21 17C22.2889 15.6189 23 13.8411 23 12C23 10.1589 22.2889 8.38111 21 7" stroke="#EAEAEA" stroke-linecap="round" stroke-linejoin="round"/>
</svg>
