<svg width="24" height="24" viewBox="0 0 24 24" fill="none" xmlns="http://www.w3.org/2000/svg">
<path d="M16.8 4C17.6487 4 18.4626 4.35489 19.0627 4.98661C19.6629 5.61833 20 6.47512 20 7.3685V14.1055C20 14.9989 19.6629 15.8557 19.0627 16.4874C18.4626 17.1191 17.6487 17.474 16.8 17.474H13.0208L9.2112 19.88C9.09647 19.9524 8.96631 19.9935 8.83262 19.9993C8.69893 20.0051 8.56599 19.9755 8.44597 19.9133C8.32594 19.851 8.22267 19.7581 8.14559 19.643C8.06852 19.5278 8.02011 19.3942 8.0048 19.2543L8 19.1583V17.474H7.2C6.37901 17.474 5.58942 17.1418 4.99455 16.5462C4.39968 15.9506 4.04505 15.1371 4.004 14.2739L4 14.1055V7.3685C4 6.47512 4.33714 5.61833 4.93726 4.98661C5.53737 4.35489 6.35131 4 7.2 4H16.8ZM14.56 11.82C14.4085 11.6637 14.2042 11.5771 13.9921 11.5793C13.7799 11.5815 13.5773 11.6723 13.4288 11.8318C13.2426 12.0319 13.0203 12.1909 12.7749 12.2994C12.5296 12.408 12.2661 12.4639 12 12.4639C11.7339 12.4639 11.4704 12.408 11.2251 12.2994C10.9797 12.1909 10.7574 12.0319 10.5712 11.8318C10.4219 11.676 10.2204 11.5883 10.0102 11.5877C9.80001 11.5871 9.59804 11.6736 9.44794 11.8285C9.29785 11.9834 9.2117 12.1943 9.20812 12.4155C9.20453 12.6367 9.28381 12.8505 9.4288 13.0107C9.76398 13.3708 10.164 13.6568 10.6055 13.8521C11.047 14.0473 11.5211 14.1479 12 14.1479C12.4789 14.1479 12.953 14.0473 13.3945 13.8521C13.836 13.6568 14.236 13.3708 14.5712 13.0107C14.7197 12.8513 14.8019 12.6362 14.7998 12.4129C14.7977 12.1896 14.7115 11.9763 14.56 11.82ZM10.008 8.21063H10C9.78783 8.21063 9.58434 8.29935 9.43431 8.45728C9.28429 8.61521 9.2 8.82941 9.2 9.05275C9.2 9.2761 9.28429 9.49029 9.43431 9.64822C9.58434 9.80615 9.78783 9.89488 10 9.89488H10.008C10.2202 9.89488 10.4237 9.80615 10.5737 9.64822C10.7237 9.49029 10.808 9.2761 10.808 9.05275C10.808 8.82941 10.7237 8.61521 10.5737 8.45728C10.4237 8.29935 10.2202 8.21063 10.008 8.21063ZM14.008 8.21063H14C13.7878 8.21063 13.5843 8.29935 13.4343 8.45728C13.2843 8.61521 13.2 8.82941 13.2 9.05275C13.2 9.2761 13.2843 9.49029 13.4343 9.64822C13.5843 9.80615 13.7878 9.89488 14 9.89488H14.008C14.2202 9.89488 14.4237 9.80615 14.5737 9.64822C14.7237 9.49029 14.808 9.2761 14.808 9.05275C14.808 8.82941 14.7237 8.61521 14.5737 8.45728C14.4237 8.29935 14.2202 8.21063 14.008 8.21063Z" fill="#EAEAEA"/>
</svg>
