<svg width="24" height="24" viewBox="0 0 24 24" fill="none" xmlns="http://www.w3.org/2000/svg">
<path d="M18.2227 3.5C18.8266 3.50011 19.4059 3.73993 19.833 4.16699C20.2601 4.59406 20.4999 5.1734 20.5 5.77734V14.667C20.4999 15.271 20.2601 15.8503 19.833 16.2773C19.4059 16.7044 18.8266 16.9442 18.2227 16.9443H7.7627L4.35352 20.3535C4.21052 20.4965 3.99543 20.5393 3.80859 20.4619C3.62179 20.3845 3.5 20.2022 3.5 20V5.77734C3.50011 5.1734 3.73993 4.59406 4.16699 4.16699C4.59406 3.73993 5.1734 3.50011 5.77734 3.5H18.2227ZM5.77734 4.5C5.43861 4.50011 5.11355 4.6345 4.87402 4.87402C4.6345 5.11355 4.50011 5.43861 4.5 5.77734V18.793L7.20215 16.0908L7.27832 16.0283C7.35983 15.974 7.45628 15.9443 7.55566 15.9443H18.2227C18.5614 15.9442 18.8864 15.8098 19.126 15.5703C19.3655 15.3308 19.4999 15.0057 19.5 14.667V5.77734C19.4999 5.43861 19.3655 5.11355 19.126 4.87402C18.8864 4.6345 18.5614 4.50011 18.2227 4.5H5.77734ZM12.0098 12.5C12.2859 12.5 12.5098 12.7239 12.5098 13C12.5098 13.2761 12.2859 13.5 12.0098 13.5H12C11.7239 13.5 11.5 13.2761 11.5 13C11.5 12.7239 11.7239 12.5 12 12.5H12.0098ZM12 6.5C12.2761 6.5 12.5 6.72386 12.5 7V10C12.5 10.2761 12.2761 10.5 12 10.5C11.7239 10.5 11.5 10.2761 11.5 10V7C11.5 6.72386 11.7239 6.5 12 6.5Z" fill="#333333"/>
</svg>
