<svg width="24" height="24" viewBox="0 0 24 24" fill="none" xmlns="http://www.w3.org/2000/svg">
<path d="M12 6.5C13.2828 6.5 14.3569 6.95497 15.251 7.87695C16.1453 8.79947 16.5913 9.91387 16.5908 11.25V11.6934L17.0312 11.7461C17.7422 11.8311 18.3222 12.142 18.793 12.6914C19.2656 13.2431 19.5004 13.8803 19.5 14.625C19.5 15.4363 19.2297 16.1074 18.6865 16.668C18.1441 17.2277 17.5009 17.5004 16.7275 17.5H8C7.03125 17.5 6.21658 17.1601 5.52832 16.4668C4.84237 15.7756 4.50057 14.9407 4.5 13.9316C4.5 13.0617 4.75142 12.2979 5.25488 11.624C5.75427 10.9556 6.39812 10.5353 7.20312 10.3496L7.49707 10.2822L7.57422 9.99023C7.85035 8.9423 8.39719 8.10505 9.21777 7.46191C10.0391 6.81834 10.9608 6.5 12 6.5Z" stroke="#31373D"/>
</svg>
