<svg width="32" height="32" viewBox="0 0 32 32" fill="none" xmlns="http://www.w3.org/2000/svg">
<rect x="0.5" y="0.5" width="31" height="31" rx="7.5" fill="#00AECC" fill-opacity="0.1"/>
<rect x="0.5" y="0.5" width="31" height="31" rx="7.5" stroke="#00AECC"/>
<path fill-rule="evenodd" clip-rule="evenodd" d="M20 14C23.154 14 26 16.186 26 19.213C26 20.909 25.08 22.366 23.74 23.293C23.696 23.558 23.732 23.825 23.732 24.092C23.7333 24.3313 23.6396 24.5614 23.4714 24.7316C23.3032 24.9019 23.0743 24.9984 22.835 25C22.155 25 21.525 24.776 20.992 24.355C20.6634 24.4022 20.3319 24.4259 20 24.426C16.846 24.426 14 22.24 14 19.213C14 16.186 16.846 14 20 14ZM13.5 7C17.277 7 20.649 9.535 20.974 13.062C20.6509 13.0215 20.3256 13.0008 20 13C16.467 13 13 15.473 13 19.209C13 19.563 13.03 19.9053 13.09 20.236C12.7799 20.2207 12.4708 20.1893 12.164 20.142C11.494 20.691 10.721 21 9.854 21C9.336 21 8.917 20.566 8.917 20.03L8.921 19.833L8.938 19.436C8.94765 19.2377 8.92913 19.0391 8.883 18.846C7.17 17.667 6 15.794 6 13.624C6 9.807 9.525 7 13.5 7ZM18 17C17.7348 17 17.4804 17.1054 17.2929 17.2929C17.1054 17.4804 17 17.7348 17 18C17 18.2652 17.1054 18.5196 17.2929 18.7071C17.4804 18.8946 17.7348 19 18 19C18.2652 19 18.5196 18.8946 18.7071 18.7071C18.8946 18.5196 19 18.2652 19 18C19 17.7348 18.8946 17.4804 18.7071 17.2929C18.5196 17.1054 18.2652 17 18 17ZM22 17C21.7348 17 21.4804 17.1054 21.2929 17.2929C21.1054 17.4804 21 17.7348 21 18C21 18.2652 21.1054 18.5196 21.2929 18.7071C21.4804 18.8946 21.7348 19 22 19C22.2652 19 22.5196 18.8946 22.7071 18.7071C22.8946 18.5196 23 18.2652 23 18C23 17.7348 22.8946 17.4804 22.7071 17.2929C22.5196 17.1054 22.2652 17 22 17ZM11 10C10.7348 10 10.4804 10.1054 10.2929 10.2929C10.1054 10.4804 10 10.7348 10 11C10 11.2652 10.1054 11.5196 10.2929 11.7071C10.4804 11.8946 10.7348 12 11 12C11.2652 12 11.5196 11.8946 11.7071 11.7071C11.8946 11.5196 12 11.2652 12 11C12 10.7348 11.8946 10.4804 11.7071 10.2929C11.5196 10.1054 11.2652 10 11 10ZM16 10C15.7348 10 15.4804 10.1054 15.2929 10.2929C15.1054 10.4804 15 10.7348 15 11C15 11.2652 15.1054 11.5196 15.2929 11.7071C15.4804 11.8946 15.7348 12 16 12C16.2652 12 16.5196 11.8946 16.7071 11.7071C16.8946 11.5196 17 11.2652 17 11C17 10.7348 16.8946 10.4804 16.7071 10.2929C16.5196 10.1054 16.2652 10 16 10Z" fill="#1ECF39"/>
</svg>
